<?xml version="1.0" encoding="utf-8"?>
<!-- Generator: Adobe Illustrator 19.0.0, SVG Export Plug-In . SVG Version: 6.00 Build 0)  -->
<svg version="1.1" id="Layer_1" xmlns="http://www.w3.org/2000/svg" xmlns:xlink="http://www.w3.org/1999/xlink" x="0px" y="0px"
	 viewBox="0 0 180 180" style="enable-background:new 0 0 180 180;" xml:space="preserve">
<g>
	<path d="M90.2,0c49.2,0,89.7,40.4,89.8,89.7c0.1,49.6-40.2,90.2-89.7,90.3C40.5,180.1-0.1,139.6,0,89.8C0.1,40.2,40.5,0,90.2,0z
		 M89.8,162.8c40.1,0.1,72.9-32.6,73-72.8c0-40-32.4-72.6-72.4-72.8c-40.1-0.3-73,32.3-73.2,72.5C17,129.8,49.6,162.7,89.8,162.8z"
		/>
	<path d="M152.1,90c0,34.5-27.8,62.2-62.3,62.1c-34.5-0.1-62.1-27.9-62-62.4c0.1-34.3,27.7-61.8,62-61.9
		C124.4,27.8,152.1,55.5,152.1,90z M96.7,123.7c0.3,3.8,0.4,7.3,1,10.8c0.7,4.3,2,5.2,6.1,3.9c11.1-3.6,20.1-10.1,26.8-19.7
		c2.1-3,1.9-4.6-1.4-5.9c-7.1-2.7-14.3-5.3-21.7-7.2c-4.6-1.2-8.5,1.9-9.4,6.7C97.3,116,97.1,120,96.7,123.7z M89.9,40.4
		c-5.3,1.1-11,2.1-16.6,3.6c-3.5,1-4.2,2.6-2.3,5.5c3.9,6.1,7.9,12.3,12.6,17.8c3.9,4.7,8.9,4.7,12.9,0.1
		c4.6-5.2,8.7-10.9,12.5-16.7c2.6-3.9,1.7-6.1-2.9-7.4C101,42.1,95.7,41.5,89.9,40.4z M139.7,89.4c-1-9.7-3.7-19.7-10.3-28.4
		c-2.7-3.6-4.3-3.9-7.1-0.5c-4.4,5.4-8.8,10.9-12.4,16.8c-3.3,5.4-1.8,10.1,4,12.7c5.9,2.6,12.1,4.6,18.3,6.4
		C138.2,98,139.8,96.4,139.7,89.4z M40.2,89.2c0.1,1.1,0.1,2.3,0.2,3.4c0.3,2.7,1.9,4.1,4.4,3.3c7.4-2.2,15-4.3,22.1-7.2
		c4.2-1.7,5.5-6.1,3.8-10.1c-3.3-7.5-8.1-14.1-14-19.8c-1.8-1.7-3.6-1.6-5.2,0.1c-0.9,0.9-1.8,1.9-2.5,3.1
		C43.7,70.2,41,79.4,40.2,89.2z M82.1,122.4c-0.2-2.8-0.2-6.2-0.8-9.4c-1.1-6.4-4.6-9.2-10.9-7.8c-6.6,1.5-13.1,3.6-19.4,6.1
		c-4.7,1.8-5.3,4-1.8,8c4,4.6,8.6,8.8,13.5,12.4c3.7,2.7,8.1,4.5,12.4,6.1c4,1.5,5.5,0.4,6-3.9C81.6,130.2,81.7,126.6,82.1,122.4z
		 M89.9,100.3c5.8,0,10.2-4.2,10.3-9.9c0.1-6-4.2-10.5-10.2-10.6c-5.8,0-10.2,4.2-10.3,9.9C79.6,95.7,84,100.2,89.9,100.3z"/>
</g>
</svg>
