<svg height="30" viewBox="0 0 30 30" width="30" xmlns="http://www.w3.org/2000/svg"><g fill="none" fill-rule="evenodd"><path d="m0 0h30v30h-30z"/><path d="m0 17.3496094v-8.37890628c.12890625 0 .25195313-.00585937.38085938-.00585937h21.56835942c2.6835937 0 5.3671875.00585937 8.0507812.00585937v8.37890628c-.0117188.0117187-.0351562.0234375-.0351562.0410156-.375 1.2070312-1.0605469 1.7167969-2.3203126 1.7167969h-11.8828125-13.5820312c-.984375 0-1.77539062-.5683594-2.07421875-1.4648438-.02929687-.0996093-.0703125-.1933593-.10546875-.2929687zm23.296875-5.390625h-2.8652344c-.4101562 0-.6035156.1757812-.6035156.5800781-.0058594 1.03125-.0058594 2.0683594 0 3.0996094 0 .3925781.1875.5800781.5742188.5800781 1.921875.0058594 3.84375.0058594 5.765625 0 .421875 0 .6035156-.1875.6035156-.609375v-3.0117188c0-.4628906-.1757813-.6386718-.6328125-.6386718-.9492188 0-1.8925781 0-2.8417969 0zm-11.578125 2.6132812h2.9882812c.0878907 0 .1757813 0 .2636719-.0117187.2519531-.046875.3925781-.2050782.4101563-.4628907.0175781-.2402343-.1640625-.4453125-.421875-.4804687-.0878906-.0117187-.1757813-.0058594-.2636719-.0058594h-4.3652344c-.58593748 0-1.17187498-.0058593-1.75781248 0-.31640624.0058594-.515625.2050781-.50976562.4863281 0 .2636719.19335938.4511719.4921875.4746094.07617188.0058594.15820312 0 .234375 0zm-6.99023437-.9667969h-1.20117188c-.38671875 0-.60351562.1757813-.60351562.4804688-.00585938.3046875.2109375.4804687.59765625.4863281.80859375.0058594 1.6171875.0058594 2.42578124 0 .36328126 0 .57421876-.1875.58007813-.4804687 0-.2988282-.2109375-.4804688-.56835937-.4863282-.41015626-.0058593-.8203125 0-1.23046875 0zm25.27148437-9.96679683c-1.7285156.00585938-3.4511719.01171875-5.1796875.01171875h-24.38085937c-.14648438 0-.29296875-.00585937-.43945313-.01171875v-1.875c.01757813-.03515625.04101563-.06445312.05273438-.09960937.29882812-1.07226562 1.07226562-1.6640625 2.18554687-1.6640625h14.19726565 11.2089843c1.2597657 0 1.9394532.50976563 2.3144532 1.72265625.0058594.01757812.0234375.02929687.0410156.04101562z" fill="#0756a5" fill-rule="nonzero" transform="translate(0 6)"/></g></svg>