<svg height="30" viewBox="0 0 30 30" width="30" xmlns="http://www.w3.org/2000/svg"><g fill="none" fill-rule="evenodd"><path d="m0 0h30v30h-30z"/><path d="m27.4251497 20.5109344c-1.8443114 0-3.6347305 0-5.4311377 0-.9401198 0-1.8742515 0-2.8143713 0-.8742515-.0059642-1.3952096-.5248509-1.3952096-1.3956262 0-.7634195 0-1.526839 0-2.3439364-.1137724.1013916-.1856287.1610338-.251497.2266401-1.017964.9960239-2.0359281 1.9920477-3.0538922 2.9880716-.6347305.6202783-1.3173653.6262425-1.9401197 0-.4371258-.4353877-.8562875-.888668-1.3233533-1.3717694-.0718563.1491054-.1077845.2266402-.1377246.304175-.6047904 1.4791252-1.23952095 2.946322-1.80838322 4.4433399-.2994012.7813122-1.36526946 1.2644135-2.1736527.4473161-2.19760479-2.2127236-4.40718563-4.4075546-6.65868263-6.5606362-.71257485-.6799204-.49700599-1.8787276.46107784-2.2007952 1.50898204-.5129224 2.98203593-1.1153081 4.4730539-1.6819085.1017964-.0357853.19760479-.083499.31137724-.1252485-.46107784-.4592446-.89820359-.9065607-1.34131736-1.3479126-.64670659-.6441352-.65269462-1.3300198 0-1.97415503 2.47305389-2.44532804 4.94011976-4.89065607 7.41916163-7.32405567 1.994012-1.96222664 5.1377246-1.99204771 7.1437126-.0417495 1.9221557 1.8667992 3.8203593 3.75745527 5.7305389 5.6361829.5868264.58449304.5808384 1.30019881-.017964 1.8906561-1.3592815 1.3300198-2.7245509 2.6600397-4.0718563 3.9960238-.1017964.1013917-.1856288.2683897-.1916168.3996024-.0179641 1.1332008-.005988 2.2664016-.005988 3.3996024 0 .0596421.005988.1192843.011976.1968191h7.0718563c0-.1312127 0-.2624255 0-.3996024 0-5.4274354 0-10.85487078 0-16.27634196 0-.6918489.3832336-1.19880715 1.005988-1.33001988.8323354-.17892644 1.5449102.42942346 1.5508983 1.32405567.005988 1.71172962 0 3.41749503 0 5.12922465v12.31610342 9.7813121c0 .6262425-.3652695 1.1212724-.9281438 1.2763419-.5508982.1491054-1.1497006-.0536779-1.4251497-.5546719-.1257485-.2326044-.1976048-.5248509-.1976048-.7932406-.011976-2.5646123-.005988-5.1292246-.011976-7.693837 0-.11332 0-.2087475 0-.3399602zm-5.5988024-11.46322068c.0239521.01789264.0538922.0417495.0778443.05964214-.0538922-.05367793-.1017964-.11332007-.1556886-.16699801-1.5568862-1.52683896-3.1077844-3.05964214-4.6646707-4.58648111-1.017964-.99602386-2.5808383-.99005964-3.5988024.01192843-2.1257485 2.09940358-4.25149697 4.19284294-6.38323349 6.29224653-.07784431.0775348-.17964072.1252485-.2754491.1908549 2.26946107 2.2306163 4.47305389 4.4075546 6.73652699 6.6322067 2.760479-2.8210735 5.51497-5.6302187 8.263473-8.43339958zm-18.20359281 7.58648108c1.31137725 1.3658052 2.62874252 2.7435388 3.98802395 4.1630219.53892216-1.3777336 1.04790419-2.6719682 1.55089821-3.9781312.02395209-.0596422-.0239521-.166998-.07784431-.220676-.4491018-.4532803-.8982036-.9065606-1.35928144-1.3419483-.06586827-.0656063-.22155689-.0954274-.30538922-.0656063-1.29341318.4771371-2.58682635.9781312-3.79640719 1.4433399z" fill="#0756a5" fill-rule="nonzero"/></g></svg>