<svg height="30" viewBox="0 0 30 30" width="30" xmlns="http://www.w3.org/2000/svg"><g fill="none" fill-rule="evenodd"><path d="m0 1h30v30h-30z"/><g fill="#0756a5" fill-rule="nonzero" transform="translate(0 1)"><path d="m4.5 9.33h2.4 18.45c1.2 0 2.34.27 3.27 1.11 1.23 1.11 1.62 2.52 1.23 4.11-.39 1.56-1.47 2.52-3 2.94-.9.24-1.8.18-2.73.18-.3 0-.45.06-.54.36-.6 1.68-1.47 3.21-2.88 4.32-1.17.93-2.55 1.41-4.02 1.59s-2.94.15-4.41-.12c-2.52-.45-4.32-1.86-5.52-4.08-.78-1.47-1.23-3.06-1.53-4.68-.36-1.86-.6-3.75-.72-5.73zm2.61 2.46c.09.63.18 1.2.27 1.8.24 1.47.57 2.94 1.17 4.35.75 1.74 1.89 3.06 3.81 3.51 1.26.3 2.55.3 3.84.18.99-.09 1.92-.36 2.76-.93 1.02-.72 1.65-1.71 2.13-2.82.66-1.62.99-3.33 1.23-5.04.06-.33.09-.66.12-.99-5.1-.06-10.17-.06-15.33-.06zm17.28 3.48c.63-.03 1.23-.03 1.83-.12.78-.15 1.29-.69 1.35-1.35.09-.78-.21-1.41-.84-1.74-.57-.3-1.17-.3-1.77-.27-.21 1.14-.39 2.28-.57 3.48z"/><path d="m28.38 23.4c.39.69.75 1.38 1.17 2.1-.51.21-.96.45-1.44.63-2.4.96-4.89 1.56-7.47 1.92-2.19.3-4.38.45-6.6.39-4.05-.09-8.01-.63-11.82-2.01-.6-.21-1.2-.48-1.8-.75-.15-.03-.27-.12-.42-.18.39-.72.78-1.41 1.14-2.1 4.35 1.98 8.94 2.67 13.62 2.67 4.71 0 9.27-.72 13.62-2.67zm-14.16-16.05h-2.22c-.06 0-.15-.03-.21-.06-.72-.51-1.17-1.23-.78-2.16.18-.42.42-.81.66-1.2.21-.36.48-.72.69-1.08.69-1.2.57-1.86-.45-2.82.09 0 .15-.03.21-.03h1.89c.12 0 .27.06.39.15.84.63 1.02 1.41.54 2.34-.24.45-.54.87-.81 1.29-.24.39-.51.78-.69 1.23-.36.81-.21 1.47.45 2.07.12.09.18.15.33.27zm2.61-7.35h2.28c.06 0 .09.03.15.03.54.42 1.14 1.11.81 2.04-.12.36-.33.72-.51 1.05-.24.39-.54.78-.78 1.17-.66 1.08-.96 1.95.33 3.06-.78 0-1.56.09-2.28-.03-.51-.09-.81-.6-.96-1.14-.15-.48 0-.93.24-1.35.27-.45.57-.87.84-1.32.24-.39.48-.75.66-1.17.36-.78.21-1.38-.39-1.98-.15-.12-.24-.21-.39-.36z"/></g></g></svg>