<svg height="30" viewBox="0 0 30 30" width="30" xmlns="http://www.w3.org/2000/svg"><g fill="none" fill-rule="evenodd"><path d="m0 0h30v30h-30z"/><g fill="#0756a5" fill-rule="nonzero" transform="translate(2 2)"><path d="m13.0206759.01035857h11.6508947c.8942346 0 1.3180914.41952191 1.3180914 1.31035856v10.92310757c0 1.4191235-.8942346 2.5482072-2.2433399 2.8434263-.2274354.0466135-.4600398.0621514-.6926442.0621514-6.7196819.0051793-13.4341948.0051793-20.15387671.0051793-1.4473161 0-2.52763419-.8338646-2.8222664-2.1752988-.05168986-.2278885-.06719682-.4609562-.06719682-.6940239-.00516898-3.67729087-.00516898-7.35458171 0-11.02669326 0-.80278885.44453281-1.24820717 1.25089463-1.24820717zm10.7566601 2.18047808c-7.2210736 0-14.40596423 0-21.60119286 0 0 .05697211-.00516898.09840638-.00516898.13984064v9.99083661c0 .4505977.24811133.6733068.72365805.6733068h20.12803179c.5375746 0 .754672-.2175299.754672-.7458167 0-2.44980081 0-4.89960161 0-7.35458169 0-.89083665 0-1.78685259 0-2.70358566zm-16.04453282 17.60956175c-.13956262.5749004-.24811133 1.1601594-.42902584 1.7195219-.18091452.5749004-.3359841 1.1498008-.17057654 1.7454183.07753479.2796813.22743538.5593626.40318091.7924303.39801193.512749.372167 1.2015936-.09821074 1.6055777-.54791252.4713148-1.18369781.4298805-1.62823061-.1243028-.90974155-1.1239044-1.16302187-2.3928287-.82186879-3.791235.12922465-.5282869.27912525-1.0462152.4083499-1.574502.06719682-.2693227.06202783-.4920319-.21192843-.7147411-.47037773-.3780876-.53240556-1.0099601-.21709741-1.465737.33081511-.4868526.99761431-.6784861 1.54035785-.4247012.64612326.2952191.93041749.8701195 1.08031809 1.5227092.05168986.2227091.05685885.4609561.08787276.6888446.02067595.0051793.04135189.0155378.05685885.0207171zm13.37733602.0984064c-.1188867.4816733-.2326044 1.0669323-.4083499 1.6314741-.1757456.549004-.3359841 1.1031872-.1809145 1.6677291.0827037.3107569.2532803.6215139.4393638.8856573.2894632.4039841.35666.8856574.1137177 1.3051793-.2377734.4091634-.7908549.6836654-1.2302187.5541833-.2119285-.0621514-.4341949-.1916335-.5737575-.3573705-.9407554-1.1083666-1.2198807-2.3824701-.8890656-3.7964144.1395626-.5852589.2946322-1.1653386.4393638-1.7505976.0516899-.2227091.010338-.3832669-.2015904-.5438247-.4652088-.3573705-.5634195-.9944223-.2687873-1.4605578.3204771-.512749 1.0079523-.7199203 1.5662028-.4609561.5582505.2589641.8528827.7406374 1.0182902 1.3.0827038.2952191.1033798.6059761.1757456 1.025498zm-6.6524851-.0932271c-.1343937.5645418-.2739563 1.1342629-.4031809 1.6988048-.0930418.4143426-.2119285.8338645-.2481114 1.2585657-.0465208.4972112.1395627.9426295.4755467 1.3258964.3359841.383267.3669981.9270917.0982108 1.3414343s-.8322068.6525896-1.2819086.5023904c-.1860835-.0621514-.372167-.1916334-.5013916-.3418326-.9407555-1.1083666-1.2147117-2.3876494-.8890656-3.7964144.1240556-.5386454.2894632-1.061753.4186879-1.6003984.0671968-.274502.0723658-.5075697-.2119285-.7406374-.4703777-.3780877-.5220676-1.0151395-.2119284-1.4657371.3359841-.4920319 1.0182903-.6733068 1.5610338-.4091633.6202783.3003984.8994036.8545816 1.0493042 1.4864541.0568588.2330678.0620278.4764941.0930417.7147411.015507.0103585.0310139.0155378.0516899.0258964z"/><path d="m12.9638171 6.58804781c-2.212326 0-4.42982108.00517928-6.64214712 0-.84771372 0-1.40596421-.76653387-1.09065606-1.5123506.19642147-.47131474.56858847-.6940239 1.08031809-.6940239h3.28230616c3.29264413 0 6.58011933 0 9.87276343.00517928.1705765 0 .351491.00517928.5117296.05179283.5324056.15537848.8373758.66812749.759841 1.22749004-.0723658.52828685-.5220676.92191235-1.0751491.92191235-2.238171 0-4.471173 0-6.699006 0zm-.010338 4.14342629c-2.212326 0-4.42982105.0051793-6.64214709 0-.84771372 0-1.39562624-.77689243-1.08031809-1.51752988.19642147-.46095617.55825049-.68366534 1.05964214-.68366534h3.28230617c3.29781307 0 6.60079527 0 9.89860837.00517929.1705765 0 .351491.00517928.5117296.05179283.5324056.16055776.8322068.67330677.749503 1.23266932-.0775348.52828688-.5272366.91155378-1.0854871.91673308-2.233002-.0051793-4.466004-.0051793-6.693837-.0051793z"/></g></g></svg>