<svg height="30" viewBox="0 0 30 30" width="30" xmlns="http://www.w3.org/2000/svg"><g fill="none" fill-rule="evenodd"><path d="m0 0h30v30h-30z"/><path d="m0 6.7c.286-.5.52-1.1.858-1.53333333.728-.86666667 1.586-.9 2.522-.36666667.052-.4.078-.73333333.13-1.1.234-2 1.664-3.7 3.224-3.7 4.16 0 8.32 0 12.506.03333333 1.586 0 3.016 1.7 3.25 3.73333334.026.33333333.078.63333333.104 1.03333333 1.17-.63333333 2.184-.4 2.886.86666667.286.5.442 1.2.468 1.83333333.052 1.7.026 3.4.026 5.0666667 0 2.1333333-.936 3.3666666-2.6 3.3666666h-.702v2.3333334c0 .5-.026 1.0333333-.52 1.0333333-.546 0-.572-.5333333-.572-1.0666667v-2.2333333h-17.186v2.2666667c0 .5-.026 1-.546 1.0333333-.52 0-.546-.5-.546-1v-2.4c-1.56.3-2.704-.3666667-3.302-2.2666667 0-2.2666666 0-4.59999997 0-6.9333333zm3.458 4.8v-3.4c0-.36666667-.026-.73333333-.052-1.06666667-.052-.76666666-.442-1.13333333-.988-1.2-.858-.06666666-1.326.5-1.352 1.66666667-.026 1.63333333 0 3.2666667 0 4.9 0 1.8.286 2.1666667 1.664 2.1666667h20.514.572c.598-.0333334 1.014-.4666667 1.04-1.2333334.052-2.0666666.052-4.16666663 0-6.2333333-.026-.83333333-.494-1.23333333-1.17-1.23333333s-1.066.4-1.118 1.26666666c-.052 1.13333334-.052 2.26666667-.052 3.39999997v.9666667zm8.944-1.3666667v-8.76666663c-1.95 0-3.822-.03333334-5.694 0-1.3.03333333-2.132 1.26666666-2.158 2.93333333-.026 1.4 0 2.76666667 0 4.16666667v1.66666663zm1.144-.0333333h7.852c.026-.13333333.052-.23333333.052-.3 0-1.8.026-3.6 0-5.4-.026-1.83333333-.91-3-2.366-3.03333333-1.222-.03333334-2.47 0-3.692 0h-1.82c-.026 2.96666666-.026 5.8-.026 8.73333333z" fill="#0756a5" fill-rule="nonzero" stroke="#0756a5" transform="translate(2 6)"/></g></svg>