<svg height="28" viewBox="0 0 28 28" width="28" xmlns="http://www.w3.org/2000/svg"><g fill="none" fill-rule="evenodd" transform="translate(-1 -1)"><path d="m0 0h30v30h-30z"/><path d="m11.9220281 7.36723447c-1.4196847-1.41951977-2.77375371-2.77939585-4.13378779-4.13330756-.3757989-.37575523-.52492544-.81115415-.36983383-1.33005423.26246271-.87079784 1.33020877-1.18690939 2.028121-.60836562.08351087.07157243.16105667.14910922.23860247.22664602 1.68214745 1.68791636 3.36429485 3.37583272 5.05240735 5.06374908.0775458.0775368.1431615.16700233.2266723.2683966.1133362-.10139427.190882-.1729667.2624627-.25050349 1.7179378-1.71177384 3.4299106-3.42951204 5.1418833-5.14725025.3101832-.31611155.6680869-.50100698 1.1154666-.44732766.5189603.05964369.8887942.34593339 1.061781.840976.1789518.50697134.0596506.96026337-.3161483 1.34198297-1.2884534 1.29426802-2.5828718 2.58853605-3.8772902 3.8768397-.0775458.0775368-.1670217.14314485-.2445675.21471728.005965.02385747.0178952.05367932.0238602.07753679h.3042182 6.6212186c2.1056668 0 3.9369407 1.83106121 3.9429058 3.9424478v13.74787c0 2.1054222-1.837239 3.9484121-3.9369408 3.9484121-6.7106945 0-13.421389 0-20.12611842 0-2.09970175 0-3.93694078-1.8429899-3.93694078-3.9484121 0-4.5806352 0-9.1612705 0-13.74787 0-2.10542222 1.83723903-3.93648343 3.94290584-3.93648343h6.59139326zm3.0720068 19.08598003h9.9914785c.1312314 0 .2564977.0059644.387729-.0059643.6621219-.047715 1.0140605-.3996127 1.061781-1.0556933.0119302-.1312161.0059651-.2564679.0059651-.387684 0-4.5329202 0-9.0658405 0-13.5987608 0-1.180945-.3042182-1.4851278-1.4793353-1.4851278-6.6510439 0-13.3020878 0-19.95313168 0-.13123136 0-.25649766 0-.38772902.00596437-.67405198.03578622-1.03195569.39364833-1.07967618 1.06762203-.00596506.1073586-.00596506.2206816-.00596506.3280403v13.7180481c0 .1073587 0 .2206817.00596506.3280403.04175543.6739737.39965914 1.0318358 1.07371112 1.0795508.13123136.0119287.25649766.0059643.38772902.0059643z" fill="#1a63ac" fill-rule="nonzero"/></g></svg>