<svg height="30" viewBox="0 0 30 30" width="30" xmlns="http://www.w3.org/2000/svg"><g fill="none" fill-rule="evenodd"><path d="m0 0h30v30h-30z"/><path d="m.05859375 15.234375c0-.1582031 0-.3105469 0-.46875.234375-.6914062.72070313-.9667969 1.43554687-.9375.515625.0234375 1.02539063.0058594 1.54687501.0058594 0-2.0507813 0-4.06640628 0-6.0996094-.49804688 0-.97265625-.0234375-1.44726563.00585937-.72070312.04687501-1.25390625-.19335937-1.53515625-.88476562 0-.17578125 0-.3515625 0-.52734375.09375-.16992188.1640625-.35742187.28125-.50390625.24609375-.31640625.59179688-.421875.984375-.421875h1.74023438c0-.14648437 0-.25195312 0-.35742187 0-.72070313-.00585938-1.44140625 0-2.16210938.01757812-1.30078125.77929687-2.35546875 1.97460937-2.73632812.17578125-.05859375.3515625-.09375.52734375-.14648438h19.92187505c.0175781.01171875.0292968.02929688.046875.03515625 1.6523437.41015625 2.4082031 1.37695313 2.4082031 3.07617188 0 5.30273437 0 10.60546877.0058594 15.90234377 0 .4804687-.1523438.8554687-.4980469 1.1953125-3.0703125 3.0585937-6.1289063 6.1347656-9.1992188 9.1933594-.2402343.2402343-.5625.3984374-.8496093.5917968-3.9433594 0-7.89257817 0-11.83593755 0-.046875-.0175781-.08789062-.0410156-.13476562-.0527344-1.2890625-.2460937-2.22070313-1.2011718-2.33789063-2.5019531-.07617187-.84375-.02929687-1.6933593-.03515625-2.5429687 0-.1113281 0-.2226563 0-.3574219-.5390625 0-1.03710937-.0234375-1.53515625.0058594-.72070312.0410156-1.22460937-.234375-1.47070312-.9316406 0-.1757813 0-.3515625 0-.5273438.27539062-.6972656.796875-.9433594 1.5234375-.890625.48046875.0351563.96679687.0058594 1.453125.0058594 0-2.0332031 0-4.0253906 0-6.0351563-.52734375 0-1.03710938-.0175781-1.54101563.0058594-.70898437.0292969-1.1953125-.2460937-1.4296875-.9375zm5.34375 6.9667969c.66796875 0 1.30078125-.0058594 1.93945313 0 .68554687.0058593 1.20703124.515625 1.20117187 1.171875-.00585937.6386718-.515625 1.1484375-1.18359375 1.1660156-.33984375.0117187-.68554687 0-1.02539062 0-.31054688 0-.61523438 0-.94335938 0v2.4082031c0 .5566406.15820313.7148438.70898438.7148438h9.02343752c.1054687 0 .2050781-.0117188.3339844-.0175782 0-.1464843 0-.2578125 0-.375 0-2.2675781 0-4.5292968 0-6.796875 0-.2226562 0-.4511718.0468749-.6679687.2695313-1.3769531 1.4003907-2.296875 2.8417969-2.3027344 2.3027344-.0058593 4.6054688 0 6.9140625 0h.3632813c0-.7558593 0-1.4648437 0-2.1796875 0-4.1191406 0-8.23828122 0-12.36328122 0-.48046876-.1523438-.62695313-.6269531-.6328125-.0175782 0-.0410157 0-.0585938 0-6.2695312 0-12.5390625 0-18.80273437 0-.0703125 0-.13476563 0-.20507813 0-.33398437.01757812-.52148437.19921874-.52148437.5390625-.00585938.5859375 0 1.171875 0 1.7578125v.7734375c.43359375 0 .83203125-.00585938 1.23046875 0 .33398437.00585937.66796875-.01171876.99023437.04101562.53320313.08203125.90820313.55664062.93164063 1.08984375.01757812.515625-.328125 1.00195312-.83789063 1.13671875-.15820312.04101562-.328125.05273438-.4921875.05273438-.60351562.00585937-1.20117187 0-1.8046875 0v6.09960942h.984375c.33398438 0 .66210938-.0058594.99609375.0058593.65625.0234375 1.15429688.5332032 1.15429688 1.1601563s-.50390625 1.1367187-1.15429688 1.1660156c-.1875.0058594-.36914062 0-.55664062 0-.47460938 0-.94921875 0-1.4296875 0-.01757813 2.0449219-.01757813 4.03125-.01757813 6.0527344zm19.06640625-2.3730469c-.0234375-.0058594-.0644531-.0117188-.0996094-.0117188-1.9980468 0-4.0019531 0-6 0-.4160156 0-.6035156.1992188-.6035156.6152344v5.9121094c0 .0585938.0175781.1171875.0351562.1992188 2.2324219-2.25 4.4472657-4.4765626 6.6679688-6.7148438z" fill="#0756a5" fill-rule="nonzero" transform="translate(1)"/></g></svg>