<svg height="30" viewBox="0 0 30 30" width="30" xmlns="http://www.w3.org/2000/svg"><g fill="none" fill-rule="evenodd"><path d="m0 0h30v30h-30z"/><g fill="#0756a5" fill-rule="nonzero" transform="translate(2)"><path d="m26.3085937 12.3046875v1.6992187c-.0410156.328125-.0761718.65625-.1289062.984375-.7441406 4.4589844-3.1054688 7.7519532-7.1015625 9.8613282-.1992187.1054687-.2753906.2109375-.2695312.4394531.0117187 1.5703125.0058593 3.140625.0058593 4.7109375-.0410156 0-.0761719 0-.1171875 0-.046875-.0292969-.09375-.0644531-.140625-.0820312-1.734375-.5800782-3.4746094-1.1601563-5.2148437-1.734375-.1054688-.0351563-.2519531-.0234376-.3632813.0117187-1.5527343.5097656-3.10546872 1.03125-4.6582031 1.5527344-.21679687.0703125-.42773438.1640625-.64453125.2460937-.04101562 0-.07617187 0-.1171875 0 0-1.5820312-.00585937-3.1640625.00585938-4.7402344 0-.2050781-.06445313-.3046874-.24609375-.3984374-7.078125-3.5507813-9.4453125-12.4277344-5.04492188-19.00781255 2.04492187-3.05859375 4.91015625-4.92773437 8.53125-5.61914062.515625-.09960938 1.0371094-.15234375 1.5585937-.22851563h1.640625c.3691407.046875.7324219.08203125 1.1015625.140625 2.5839844.3984375 4.8691407 1.44726562 6.8144532 3.19921875 2.2148437 1.98632813 3.609375 4.453125 4.1601562 7.38281245.09375.5214844.1523438 1.0546876.2285156 1.5820313zm-3.7499999.8203125c0-5.16796875-4.1953125-9.36914062-9.3632813-9.375-5.16796875-.00585937-9.375 4.18359375-9.38671875 9.3574219-.01171875 5.1796875 4.1953125 9.3925781 9.38085935 9.3925781 5.1679688 0 9.3691407-4.2011719 9.3691407-9.375z"/><path d="m9.50976562 13.1660156c.56835938.5800781 1.17773438 1.1953125 1.79882818 1.828125 1.8808593-1.8808594 3.7382812-3.7441406 5.5839843-5.58984373.6328125.63281253 1.2421875 1.24804683 1.828125 1.83398433-2.4609375 2.4726563-4.9511719 4.9570313-7.4238281 7.4355469-1.2070312-1.2070312-2.4375-2.4433594-3.64453125-3.6503906.5859375-.5859375 1.1953125-1.1953125 1.85742187-1.8574219z"/></g></g></svg>