<svg height="30" viewBox="0 0 30 30" width="30" xmlns="http://www.w3.org/2000/svg"><g fill="none" fill-rule="evenodd"><path d="m0 0h30v30h-30z"/><circle cx="15" cy="15" r="14" stroke="#0756a5" stroke-width="2"/><path d="m3.51502404 5.74278846c.59495192-1.67330228 1.05108173-3.0863131 1.60637019-4.48073167.15865385-.3904372.57512019-.87383564.97175481-.96679687.69411058-.16733023.89242788.46480619 1.07091346.96679687.49579327 1.41301082.99158654 2.80742939 1.56670673 4.44354718.31730769-.83665115.55528846-1.48737981.79326923-2.13810848.2578125-.70650541.47596154-1.41301081.75360574-2.11951622.2181491-.59495193.3768029-1.43160307 1.328726-1.15271935 1.0114183.29747596.515625 1.04116586.3173077 1.63611778-.6941106 1.97077825-1.3683894 3.94155649-2.14182694 5.87515024-.15865384.40902945-.69411058.70650541-1.05108173 1.04116587-.33713942-.33466046-.79326923-.61354417-.97175481-1.02257362-.57512019-1.37582632-1.03125-2.78883714-1.62620192-4.42495493-.515625 1.39441857-.95192308 2.60291467-1.38822115 3.79281851-.09915866.29747597-.13882212.63213642-.33713943.87383564-.21814904.29747596-.59495192.7436899-.85276442.70650541-.35697115-.01859225-.83293269-.3904372-.95192308-.70650541-.63461538-1.5245643-1.15024038-3.0863131-1.70552884-4.6480619-.23798077-.65072866-.45612981-1.28286508-.69411058-1.93359375-.19831731-.52058293-.21814904-1.02257362.45612981-1.22708834.63461538-.18592248.99158654.18592248 1.18990384.70650541.515625 1.5245643 1.03125 3.01194411 1.66586539 4.77820763zm13.02944716 3.1234976c-2.0625-.01859225-3.8076924-1.18990385-4.4423077-2.97475962-.6147837-1.76626352.0198317-3.64408053 1.6460336-4.77820763 1.5865385-1.09694261 3.8473558-1.15271935 5.4735577-.11155349.4957933.31606821.9519231.66932092.5552885 1.28286509s-.9519231.37184495-1.4675481.07436899c-1.0907452-.63213642-2.2211539-.72509766-3.3515625-.09296124-1.328726.76228215-1.7848558 2.3054387-1.0709135 3.55111929.7734375 1.33864183 2.5186298 1.85922476 4.0060096 1.18990385.2578125-.13014574.515625-.37184495.7734375-.3904372.3768029-.01859225.9320914.03718449 1.0709135.24169922.1388221.22310697.0198317.89242788-.1983173 1.00398137-.9122596.48339844-2.9549279 1.07835036-2.9945913 1.00398137z" fill="#0756a5" fill-rule="nonzero" transform="translate(5 11)"/></g></svg>