<svg height="30" viewBox="0 0 30 30" width="30" xmlns="http://www.w3.org/2000/svg"><g fill="none" fill-rule="evenodd"><path d="m0 0h30v30h-30z"/><g fill="#0756a5" fill-rule="nonzero" transform="translate(0 4)"><path d="m15.0247934 0c5.4297521.02479339 10.1652892 1.82231405 14.1322314 5.54132231.9049587.84297521 1.0289256 2.03305786.2727273 2.83884298-.7190083.76859504-1.9338843.70661157-2.8140496-.12396694-1.4132232-1.31404959-2.9752066-2.42975207-4.7727273-3.14876033-6.3966942-2.52892562-12.33471074-1.73553719-17.75206611 2.59090909-.28512397.23553719-.54545454.49586777-.83057851.74380165-.81818182.69421488-2.02066116.6446281-2.67768595-.09917355-.69421488-.79338843-.60743802-1.9338843.19834711-2.70247934 3.39669421-3.2107438 7.43801652-5.03305785 12.07438016-5.55371901.3719008-.03719008.7438017-.06198347 1.1033058-.07438017.3719008-.01239669.7190083-.01239669 1.0661157-.01239669z"/><path d="m15.4338843 6.07438017c3.3842975.06198347 6.6694215 1.33884297 9.4834711 3.88016528.6570248.59504135 1.1280991 1.21487605.9669421 2.11983475-.2603306 1.4256198-1.8347107 1.9586777-3.0247934 1.053719-.7314049-.5578513-1.4132231-1.2024794-2.1942148-1.6983471-4.177686-2.61570251-9.5578513-2.02066119-13.10330583 1.4132231-.57024793.5454546-1.20247934.892562-1.99586777.6818182-1.47520661-.3966942-1.90909091-2.1322314-.76859504-3.2231405 2.71487603-2.61570249 6.09917354-4.19008265 10.63636364-4.22727273z"/><path d="m14.8636364 12.1983471c2.5909091.0123967 4.661157.8801653 6.3842975 2.5909091.8305785.8181818.8677686 2.0330578.1239669 2.7644628-.7809917.7561984-1.8842975.7190083-2.7520661-.1115702-2.1570248-2.0454546-5.0578512-2.0330579-7.1900826.03719-.8057852.7809918-1.90909094.8305786-2.66528929.1363637-.74380165-.6942149-.79338843-1.8471075-.04958678-2.6652893 1.68595037-1.8471074 3.81818187-2.714876 6.14876037-2.7520661zm.1983471 6.3347108c1.214876.0123966 2.2066115 1.0041322 2.2066115 2.1942148 0 1.2272728-1.0041322 2.2561984-2.2190082 2.2561984-1.2148761.0123967-2.231405-1.0041323-2.2438017-2.2438017-.0123967-1.2024793 1.0165289-2.2190082 2.2561984-2.2066115z"/></g></g></svg>