<svg height="30" viewBox="0 0 30 30" width="30" xmlns="http://www.w3.org/2000/svg"><g fill="none" fill-rule="evenodd"><path d="m0 0h30v30h-30z"/><path d="m7.56262425 15.667992c-.6500994 0-1.27037773-.0477137-1.87872763.0119285-1.00795229.1013916-1.61630219-.3161034-2.08747515-1.1988072-1.07355865-1.9920477-2.22465209-3.9423459-3.3638171-5.89860833-.29821073-.50695825-.29821073-.96620278 0-1.47912525 1.22862823-2.11133201 2.43936382-4.23459244 3.64413519-6.35785288.28628231-.50695825.69781312-.73359841 1.26441352-.73359841 2.44532803 0 4.89065602.00596421 7.33598412 0 .5367793 0 .9483101.22664016 1.2107356.67992048 1.2465208 2.15904572 2.4870775 4.31809145 3.7157057 6.4890656.250497.44135189.2385686.92445328-.0238568 1.36580517-1.2584493 2.17097412-2.5228629 4.34194832-3.7872764 6.51292242-.250497.4234593-.6441352.6023857-1.1212723.6083499-.6679921.0059643-1.3300199 0-1.998012 0-.1073558 0-.2147117 0-.3459244 0v2.0695826c.3578529.1192842.72167.2206759 1.0675944.3638171 2.5168986 1.0437375 4.0019881 3.5129224 3.7753479 6.2624254-.2087475 2.5526839-2.2246521 4.860835-4.7654075 5.4512922-3.84691852.9005965-7.53876742-1.9622266-7.59840957-5.8866799-.01192843-.7574552.47117296-1.3300199 1.15109344-1.3777336.76341948-.0536779 1.35984095.4890656 1.38369781 1.2703778.02982108 1.0675944.41749503 1.9681908 1.19284294 2.7017892 1.15109344 1.0854871 2.92246521 1.2882704 4.31212728.5009941 1.3956262-.7872764 2.1292246-2.4095428 1.8011928-3.9542744-.333996-1.5626242-1.6282306-2.749503-3.19085487-2.916501-.13717694-.0119284-.27435387-.0238568-.41749503-.0357853-.77534791-.0417495-1.27037773-.5427435-1.27634195-1.3180914-.00596421-.9244533 0-1.8489066 0-2.7733599 0-.1073558 0-.2147117 0-.3578529zm1.20477138-2.4870775c.93638171 0 1.86679917-.0059642 2.80318087.0059642.1789265 0 .2803181-.0477137.3757456-.2087475.9304175-1.6282306 1.8727634-3.25049701 2.8151093-4.87276341.0894632-.14910536.083499-.25646123 0-.4055666-.9423459-1.6222664-1.8846918-3.2445328-2.8151093-4.87276342-.0954275-.16103379-.1968191-.20874751-.3757456-.20874751-1.86679916.00596421-3.73359837.00596421-5.60039757 0-.17892644 0-.2803181.04771372-.37574553.20874751-.9304175 1.61630219-1.86083499 3.23260438-2.80318091 4.84294235-.10139166.16699801-.09542744.28628231 0 .45328032.9363817 1.60437375 1.8667992 3.20874756 2.78528827 4.81908546.10735586.1848907.22664015.2326044.42345924.2326044.91848907 0 1.84294235.0059642 2.76739563.0059642z" fill="#0756a5" fill-rule="nonzero" transform="translate(6)"/></g></svg>