<?xml version="1.0" encoding="utf-8"?>
<!-- Generator: Adobe Illustrator 16.0.0, SVG Export Plug-In . SVG Version: 6.00 Build 0)  -->
<!DOCTYPE svg PUBLIC "-//W3C//DTD SVG 1.1//EN" "http://www.w3.org/Graphics/SVG/1.1/DTD/svg11.dtd">
<svg version="1.1" id="Layer_1" xmlns="http://www.w3.org/2000/svg" xmlns:xlink="http://www.w3.org/1999/xlink" x="0px" y="0px"
	 width="223px" height="103.167px" viewBox="0 0 223 103.167" enable-background="new 0 0 223 103.167" xml:space="preserve">
<g>
	<path fill-rule="evenodd" clip-rule="evenodd" fill="#0756A5" d="M187.186,56.645c-11.393,0-21.09,6.805-24.967,17.516
		l-9.92,27.422H130.01l7.773-21.495c6.695-18.499,23.447-30.252,43.123-30.252h34.227l-18.715,51.747h-22.303l16.256-44.938H187.186
		z M51.565,85.525H29.748l-5.806,16.057H1.65l7.772-21.495c6.695-18.499,23.445-30.252,43.119-30.252h34.233l-18.72,51.747H45.754
		L51.565,85.525z M32.21,78.719h21.816l7.984-22.074h-3.188c-11.389,0-21.091,6.805-24.962,17.516L32.21,78.719z M127.271,56.642
		l-16.256,44.94h-22.3l16.255-44.94H86.609l2.463-6.807h59.02l-2.463,6.807H127.271z"/>
	<path fill-rule="evenodd" clip-rule="evenodd" fill="#EC2227" d="M79.395,36.224c0.314-1.073,0.754-2.158,1.334-3.241
		c3.786-7.065,12.098-11.338,19.985-10.118l0.312,0.313c-4.985,0.456-10.193,3.867-12.87,8.859
		c-0.753,1.405-1.239,2.818-1.485,4.186H79.395z M178.934,36.224c0.314-1.073,0.754-2.158,1.334-3.241
		c3.787-7.065,12.098-11.338,19.986-10.118l0.313,0.313c-4.984,0.456-10.195,3.867-12.871,8.859
		c-0.752,1.405-1.238,2.818-1.484,4.186H178.934z M210.891,36.224c2.453-8.624-2.273-17.275-11.314-17.435
		c-5.764-0.102-11.852,1.616-17.949,8.536h-0.439c1.594-2.839,3.697-5.349,6.109-7.428c-23.43-12.907-51.266-9.705-74.941,0.936
		c-1.43,0.642-2.865,0.737-4.367,0.291l-2.006-0.595c27.345-16.779,66.832-24.685,95.962-7.073c2.887-0.235,6.135-0.2,8.908,0.601
		c9.115,2.631,12.549,12.339,8.152,22.167H210.891z"/>
</g>
</svg>
