<svg xmlns="http://www.w3.org/2000/svg" width="16" height="16" viewBox="0 0 16 16">
  <g fill="none" fill-rule="evenodd">
    <rect width="16" height="16"/>
    <path fill="#0756A5" fill-rule="nonzero" d="M9.46141033,2.23576159 C9.56801777,1.8013245 9.68350916,1.70596026 10.0477512,1.70596026 L10.9450305,1.70596026 C11.3270405,1.70596026 11.4425319,1.8013245 11.5491394,2.22516556 L12.4997224,2.22516556 L12.4997224,1.62119205 L12.4997224,0.57218543 C12.4997224,0.254304636 12.6685175,0.021192053 12.9350361,0.021192053 C13.4680733,0.0105960265 13.9922265,0.0105960265 14.5252637,0.021192053 C14.7917823,0.021192053 14.9605775,0.254304636 14.9605775,0.57218543 L14.9605775,2.02384106 L14.9605775,2.24635762 L15.4936147,2.24635762 C15.8223209,2.24635762 15.991116,2.45827815 16,2.85033113 L16,5.37218543 C16,5.79602649 15.8489728,5.98675497 15.4847307,5.99735099 C15.4580788,5.99735099 15.431427,6.00794702 15.3870072,6.00794702 L15.3870072,6.20927152 L15.3870072,15.2264901 L15.3870072,15.3748344 C15.3781233,15.7986755 15.2182121,16 14.862854,16 L12.8817324,16 L1.17268184,16 L1.13714603,16 C0.772903942,16 0.604108828,15.7986755 0.604108828,15.3642384 L0.604108828,8.77350993 L0.604108828,6.1986755 L0.604108828,5.99735099 C0.533037202,5.98675497 0.470849528,5.98675497 0.417545808,5.97615894 C0.177679067,5.95496689 0.00888395336,5.75364238 0,5.4781457 C0,4.56688742 0,3.65562914 0.00888395336,2.73377483 C0.00888395336,2.44768212 0.195446974,2.24635762 0.453081621,2.23576159 C0.639644642,2.22516556 0.826207662,2.23576159 1.03942254,2.23576159 C1.03942254,2.1615894 1.0483065,2.08741722 1.0483065,2.02384106 L1.0483065,0.593377483 C1.0483065,0.222516556 1.21710161,0.0105960265 1.52803998,0 L3.02054414,0 C3.32259856,0 3.50027762,0.21192053 3.50027762,0.57218543 L3.50027762,2.00264901 L3.50027762,2.21456954 L4.45086063,2.21456954 C4.55746807,1.79072848 4.67295947,1.69536424 5.04608551,1.69536424 L5.9611327,1.69536424 C6.31649084,1.69536424 6.44086619,1.8013245 6.53858967,2.22516556 C6.65408107,2.22516556 6.76957246,2.23576159 6.89394781,2.22516556 C6.92948362,2.22516556 6.97390339,2.1615894 6.99167129,2.1192053 C7.07162687,1.84370861 7.20488617,1.70596026 7.43586896,1.70596026 C7.808995,1.69536424 8.191005,1.69536424 8.56413104,1.70596026 C8.79511383,1.70596026 8.94614103,1.84370861 8.99944475,2.10860927 C9.02609661,2.21456954 9.06163243,2.24635762 9.15047196,2.24635762 C9.2570794,2.22516556 9.35480289,2.23576159 9.46141033,2.23576159 Z M14.480844,14.9192053 L14.480844,5.98675497 L1.51915602,5.98675497 L1.51915602,14.9192053 L14.480844,14.9192053 Z M0.897279289,4.91655629 L15.1027207,4.91655629 L15.1027207,3.30596026 L0.897279289,3.30596026 C0.897279289,3.84635762 0.897279289,4.37615894 0.897279289,4.91655629 Z M1.93670183,1.0807947 L1.93670183,2.21456954 L2.60299833,2.21456954 L2.60299833,1.0807947 L1.93670183,1.0807947 Z M14.0632982,1.0807947 L13.3881177,1.0807947 L13.3881177,2.21456954 L14.0632982,2.21456954 L14.0632982,1.0807947 Z"/>
    <path fill="#0756A5" fill-rule="nonzero" d="M7.9558011 7.01120758L13.0298343 7.01120758C13.2950276 7.01120758 13.480663 7.16274665 13.5248619 7.40520916 13.5867403 7.7284925 13.3922652 8.01136543 13.0917127 8.02146803 12.8176796 8.03157064 12.5348066 8.02146803 12.2607735 8.02146803L2.94364641 8.02146803C2.87292818 8.02146803 2.81104972 8.02146803 2.74033149 8.01136543 2.53701657 7.97095501 2.38674033 7.77900552 2.37790055 7.54664562 2.36906077 7.30418311 2.49281768 7.09202841 2.6961326 7.04151539 2.76685083 7.02131018 2.84640884 7.01120758 2.92596685 7.01120758 4.60552486 7.00110497 6.27624309 7.01120758 7.9558011 7.01120758zM7.89392265 10.7693765C8.15911602 10.7390687 8.39779006 10.7087609 8.63646409 10.678453 8.82209945 10.6481452 8.96353591 10.7087609 9.06961326 10.8805051 9.17569061 11.0522494 9.18453039 11.2340963 9.0961326 11.4159432 8.76906077 12.0928177 8.44198895 12.7696922 8.10607735 13.4465667 7.97348066 13.7092344 7.69944751 13.8001579 7.48729282 13.6587214 7.27513812 13.5172849 7.21325967 13.2243094 7.33701657 12.9616417 7.52265193 12.5777427 7.70828729 12.2039463 7.90276243 11.7897395 7.72596685 11.8099448 7.56685083 11.83015 7.41657459 11.8503552 7.34585635 11.8604578 7.2839779 11.8705604 7.21325967 11.8705604 6.88618785 11.880663 6.66519337 11.5371744 6.7801105 11.1835833 7.00994475 10.526914 7.24861878 9.87024467 7.48729282 9.21357537 7.58453039 8.95090766 7.8320442 8.83977901 8.06187845 8.95090766 8.28287293 9.06203631 8.38895028 9.33480663 8.30055249 9.60757695 8.17679558 9.99147593 8.03535912 10.3551697 7.89392265 10.7693765z"/>
  </g>
</svg>
