<svg xmlns="http://www.w3.org/2000/svg" width="16" height="16" viewBox="0 0 16 16">
  <g fill="none" fill-rule="evenodd">
    <rect width="16" height="16"/>
    <path stroke="#0756A5" d="M15.4970494,8.81299535 L15.4976076,8.81245732 C15.5002334,8.80993048 15.5009711,8.80383496 15.4988453,8.8004451 L14.4302137,7.1029351 L14.5048657,6.87866963 L15.0639614,5.19907518 C15.065745,5.19364846 15.0636594,5.18812171 15.0609073,5.18652505 L13.3297555,4.18145234 L13.2921976,3.94730207 L13.0118661,2.19958019 C13.0109392,2.19395757 13.0080236,2.19135825 13.0067016,2.19130435 L11.0083632,2.11203325 L10.8657498,1.92051757 L9.80942645,0.501979185 C9.80830169,0.500469333 9.80685942,0.500111812 9.80604077,0.500502714 L7.99963239,1.36580244 L7.78362731,1.26233241 L6.19253546,0.500172244 C6.19229684,0.500057492 6.19064038,0.500468572 6.18960654,0.501842797 L4.99094798,2.11203141 L4.75230731,2.12149793 L2.99303144,2.19128556 C2.99159651,2.19134383 2.98947448,2.19323947 2.98874627,2.19777864 L2.67050933,4.18178795 L2.46542465,4.30085608 L0.939218421,5.18694138 C0.936368393,5.18859483 0.934423922,5.19373696 0.935679631,5.19752552 L1.57042891,7.10327078 L1.44441853,7.30336618 L0.501330375,8.80092225 C0.499132312,8.80441126 0.499811724,8.81003982 0.502882075,8.81299535 L1.94416722,10.204304 L1.92504005,10.440133 L1.78173959,12.2069576 C1.78132424,12.2121415 1.7839801,12.2160138 1.78538366,12.2164275 L3.70591728,12.7738242 L3.79847845,12.9933412 L4.48587819,14.6235777 C4.48803272,14.6286415 4.48918221,14.6292536 4.49049981,14.6289976 L6.4515883,14.2245921 L6.63623256,14.3767757 L7.99795794,15.4991083 C7.99905721,15.5000127 7.99902129,15.5 7.99996573,15.5 C8.00091018,15.5 8.00087426,15.5000127 8.00168532,15.4993456 L9.54872171,14.2245921 L9.78304107,14.2729216 L11.5136052,14.6298768 C11.5105757,14.6292251 11.5119763,14.6284817 11.5134227,14.6250663 L12.2940142,12.7738242 L12.5228067,12.7074217 L14.2135737,12.2167113 C14.2164037,12.2158837 14.2186516,12.2126041 14.2182311,12.2074437 L14.0557642,10.204304 L15.4970494,8.81299535 Z"/>
    <path fill="#0756A5" fill-rule="nonzero" d="M5.07648,7.72064 C5.0192,7.53856 5,7.43328 5,6.74336 C5,6.05344 5.01952,5.94816 5.07648,5.76608 C5.22976,5.31584 5.63232,5.02848 6.17824,5.02848 C6.72416,5.02848 7.12672,5.31584 7.27968,5.76608 C7.33728,5.94816 7.35648,6.05344 7.35648,6.74336 C7.35648,7.43296 7.33696,7.53856 7.27968,7.72064 C7.1264,8.17088 6.72416,8.45824 6.17824,8.45824 C5.63232,8.45824 5.22976,8.17088 5.07648,7.72064 Z M6.69536,7.56736 C6.72416,7.47168 6.74336,7.33728 6.74336,6.74336 C6.74336,6.14944 6.72384,6.01536 6.69536,5.91936 C6.61888,5.6992 6.4272,5.584 6.17824,5.584 C5.92928,5.584 5.7376,5.69888 5.66112,5.91936 C5.63232,6.01504 5.61312,6.14944 5.61312,6.74336 C5.61312,7.33728 5.63264,7.47136 5.66112,7.56736 C5.7376,7.78752 5.92928,7.90272 6.17824,7.90272 C6.4272,7.90272 6.61888,7.78784 6.69536,7.56736 Z M9.5696,5.09568 C9.608,5.0288 9.64608,5 9.72288,5 L10.18272,5 C10.24032,5 10.2592,5.048 10.23072,5.09568 L6.4464,11.62944 C6.40832,11.69632 6.36992,11.72512 6.30272,11.72512 L5.84288,11.72512 C5.78528,11.72512 5.75648,11.67744 5.78528,11.62944 L9.5696,5.09568 Z M8.65952,9.99136 C8.65952,9.30144 8.67872,9.19616 8.736,9.01376 C8.88928,8.56352 9.29152,8.27616 9.83776,8.27616 C10.38368,8.27616 10.78624,8.56352 10.9392,9.01376 C10.9968,9.19584 11.01568,9.30112 11.01568,9.99136 C11.01568,10.68064 10.99648,10.78624 10.9392,10.96832 C10.78592,11.41856 10.38368,11.70624 9.83776,11.70624 C9.29152,11.70624 8.88928,11.41888 8.736,10.96832 C8.67872,10.78624 8.65952,10.68064 8.65952,9.99136 Z M9.83808,11.1504 C10.08704,11.1504 10.27872,11.03552 10.3552,10.81504 C10.384,10.71936 10.40288,10.58496 10.40288,9.99136 C10.40288,9.39744 10.38368,9.26336 10.3552,9.16736 C10.27872,8.9472 10.08704,8.832 9.83808,8.832 C9.58912,8.832 9.39712,8.94688 9.32064,9.16736 C9.29184,9.26336 9.27296,9.39744 9.27296,9.99136 C9.27296,10.58496 9.29216,10.71936 9.32064,10.81504 C9.39712,11.03552 9.5888,11.1504 9.83808,11.1504 Z"/>
  </g>
</svg>
