<svg xmlns="http://www.w3.org/2000/svg" width="12" height="16" viewBox="0 0 12 16">
  <g fill="none" fill-rule="evenodd" transform="translate(-2)">
    <rect width="16" height="16"/>
    <path fill="#0756A5" fill-rule="nonzero" d="M13.8873297,5.92389277 C13.0077374,4.8495835 12.5094989,3.53091225 12.3126569,2.928519 C12.5174883,2.87701766 12.7316931,2.83909199 12.9556489,2.81905172 C13.2723323,2.79076909 13.5128959,2.56213763 13.5128959,2.289493 L13.5128959,0.532467795 C13.5128959,0.238436105 13.234524,0 12.8911043,0 L4.67356559,0 C4.65475582,0 4.63600897,0.000754203675 4.61726212,0.00220873934 C3.71200296,0.0726729113 2,0.641450226 2,2.28954687 C2,2.54295931 2.20854302,2.7612474 2.49861599,2.81145582 C2.52377955,2.81581942 4.95017605,3.2533653 5.07253387,4.75363802 L2.12437091,8.11981064 C2.02767992,8.23019374 1.98483895,8.3684285 2.00484399,8.50531646 L3.03076242,15.5335789 C3.06970303,15.8000822 3.33417207,16 3.64771006,16 L10.8290133,16 C11.1425513,16 11.4070832,15.8000822 11.4459609,15.5335789 L12.4718794,8.50531646 C12.4918844,8.3684285 12.4489805,8.23019374 12.3523524,8.11981064 L9.50559864,4.86940829 C9.60512053,4.73936202 9.74597357,4.56858876 9.92608177,4.38041495 C11.7613862,6.23796473 13.0925386,6.70540939 13.1490308,6.72458771 C13.2236408,6.74996128 13.3012704,6.76219015 13.3781451,6.76219015 C13.5643554,6.76213628 13.7457218,6.69037919 13.8662553,6.55974034 C14.0364239,6.37496044 14.0450424,6.11653794 13.8873297,5.92389277 Z M10.2801331,14.9350105 L4.19659026,14.9350105 L3.58259934,10.7287089 L10.8941869,10.7287089 L10.2801331,14.9350105 Z M11.0495719,9.66382718 L3.42715144,9.66382718 L3.26987917,8.58660884 L6.01037984,5.45752554 L8.46634352,5.45752554 L11.2068442,8.58660884 L11.0495719,9.66382718 Z M8.42287346,4.33941859 L6.26220418,4.33941859 C6.07869891,3.53603006 5.47081015,2.85649255 4.47697526,2.35360031 C4.05460486,2.13983744 3.63311519,1.99540744 3.31152487,1.90334072 C3.57322592,1.21825442 4.51107188,1.08535296 4.70728476,1.06488172 L12.2694385,1.06488172 L12.2694385,1.83767113 C10.1812403,2.23572905 8.89053827,3.70901206 8.42287346,4.33941859 Z M10.8086937,3.62524158 C10.8083792,3.62486448 10.8079388,3.62459512 10.8076243,3.62427189 C10.9230621,3.5443263 11.0454828,3.46718204 11.1735654,3.39364718 C11.2603797,3.6457667 11.3812277,3.9667881 11.5400097,4.32508872 C11.3098261,4.12032242 11.0652991,3.88818931 10.8086937,3.62524158 Z"/>
  </g>
</svg>
