<svg xmlns="http://www.w3.org/2000/svg" width="16" height="16" viewBox="0 0 16 16">
  <g fill="#0756A5" fill-rule="evenodd">
    <path d="M8,16 C3.581722,16 0,12.418278 0,8 C0,3.581722 3.581722,0 8,0 C12.418278,0 16,3.581722 16,8 C16,12.418278 12.418278,16 8,16 Z M8,15 C11.8659932,15 15,11.8659932 15,8 C15,4.13400675 11.8659932,1 8,1 C4.13400675,1 1,4.13400675 1,8 C1,11.8659932 4.13400675,15 8,15 Z"/>
    <path d="M13.52,8 C13.52,11.0666667 11.0488889,13.5288889 7.98222222,13.52 C4.91555556,13.5111111 2.46222222,11.04 2.47111111,7.97333333 C2.48,4.92444444 4.93333333,2.48 7.98222222,2.47111111 C11.0577778,2.47111111 13.52,4.93333333 13.52,8 Z M8.59555556,10.9955556 C8.62222222,11.3333333 8.63111111,11.6444444 8.68444444,11.9555556 C8.74666667,12.3377778 8.86222222,12.4177778 9.22666667,12.3022222 C10.2133333,11.9822222 11.0133333,11.4044444 11.6088889,10.5511111 C11.7955556,10.2844444 11.7777778,10.1422222 11.4844444,10.0266667 C10.8533333,9.78666667 10.2133333,9.55555556 9.55555556,9.38666667 C9.14666667,9.28 8.8,9.55555556 8.72,9.98222222 C8.64888889,10.3111111 8.63111111,10.6666667 8.59555556,10.9955556 Z M7.99111111,3.59111111 C7.52,3.68888889 7.01333333,3.77777778 6.51555556,3.91111111 C6.20444444,4 6.14222222,4.14222222 6.31111111,4.4 C6.65777778,4.94222222 7.01333333,5.49333333 7.43111111,5.98222222 C7.77777778,6.4 8.22222222,6.4 8.57777778,5.99111111 C8.98666667,5.52888889 9.35111111,5.02222222 9.68888889,4.50666667 C9.92,4.16 9.84,3.96444444 9.43111111,3.84888889 C8.97777778,3.74222222 8.50666667,3.68888889 7.99111111,3.59111111 Z M12.4177778,7.94666667 C12.3288889,7.08444444 12.0888889,6.19555556 11.5022222,5.42222222 C11.2622222,5.10222222 11.12,5.07555556 10.8711111,5.37777778 C10.48,5.85777778 10.0888889,6.34666667 9.76888889,6.87111111 C9.47555556,7.35111111 9.60888889,7.76888889 10.1244444,8 C10.6488889,8.23111111 11.2,8.40888889 11.7511111,8.56888889 C12.2844444,8.71111111 12.4266667,8.56888889 12.4177778,7.94666667 Z M3.57333333,7.92888889 C3.58222222,8.02666667 3.58222222,8.13333333 3.59111111,8.23111111 C3.61777778,8.47111111 3.76,8.59555556 3.98222222,8.52444444 C4.64,8.32888889 5.31555556,8.14222222 5.94666667,7.88444444 C6.32,7.73333333 6.43555556,7.34222222 6.28444444,6.98666667 C5.99111111,6.32 5.56444444,5.73333333 5.04,5.22666667 C4.88,5.07555556 4.72,5.08444444 4.57777778,5.23555556 C4.49777778,5.31555556 4.41777778,5.40444444 4.35555556,5.51111111 C3.88444444,6.24 3.64444444,7.05777778 3.57333333,7.92888889 Z M7.29777778,10.88 C7.28,10.6311111 7.28,10.3288889 7.22666667,10.0444444 C7.12888889,9.47555556 6.81777778,9.22666667 6.25777778,9.35111111 C5.67111111,9.48444444 5.09333333,9.67111111 4.53333333,9.89333333 C4.11555556,10.0533333 4.06222222,10.2488889 4.37333333,10.6044444 C4.72888889,11.0133333 5.13777778,11.3866667 5.57333333,11.7066667 C5.90222222,11.9466667 6.29333333,12.1066667 6.67555556,12.2488889 C7.03111111,12.3822222 7.16444444,12.2844444 7.20888889,11.9022222 C7.25333333,11.5733333 7.26222222,11.2533333 7.29777778,10.88 Z M7.99111111,8.91555556 C8.50666667,8.91555556 8.89777778,8.54222222 8.90666667,8.03555556 C8.91555556,7.50222222 8.53333333,7.10222222 8,7.09333333 C7.48444444,7.09333333 7.09333333,7.46666667 7.08444444,7.97333333 C7.07555556,8.50666667 7.46666667,8.90666667 7.99111111,8.91555556 Z"/>
  </g>
</svg>
