<svg xmlns="http://www.w3.org/2000/svg" width="18" height="18" viewBox="0 0 18 18">
  <g fill="none" fill-rule="evenodd" transform="translate(1 1)">
    <rect width="16" height="16"/>
    <g fill="#0756A5" fill-rule="nonzero" stroke="#0756A5" stroke-width=".25">
      <path d="M3.78125,0 C3.959375,0.109375 4.00625,0.26875 4.003125,0.475 C3.99375,1.140625 4,1.809375 4,2.475 L4,2.665625 C4.109375,2.665625 4.20625,2.6625 4.303125,2.665625 C4.534375,2.675 4.675,2.815625 4.675,3.040625 C4.671875,4.540625 4.66875,6.040625 4.665625,7.540625 C4.665625,7.90625 4.571875,8.003125 4.203125,8.003125 L2.68125,8.003125 C2.675,8.040625 2.665625,8.06875 2.665625,8.1 C2.671875,8.778125 2.640625,9.45625 2.69375,10.13125 C2.85,12.025 3.740625,13.4875 5.346875,14.509375 C5.359375,14.515625 5.371875,14.51875 5.41875,14.5375 C4.815625,13.69375 4.546875,12.790625 4.7125,11.784375 C4.878125,10.778125 5.390625,9.98125 6.203125,9.38125 C7.58125,8.365625 9.4,8.45625 10.703125,9.56875 C11.884375,10.578125 12.628125,12.634375 11.265625,14.51875 C11.275,14.53125 11.284375,14.540625 11.29375,14.553125 C11.590625,14.321875 11.903125,14.109375 12.178125,13.85625 C13.35625,12.7625 13.946875,11.396875 13.99375,9.796875 C14.009375,9.240625 13.996875,8.68125 13.996875,8.125 L13.996875,8.003125 L13.08125,8.003125 C12.784375,8.003125 12.6625,7.884375 12.6625,7.590625 L12.6625,4.41875 C12.6625,4.121875 12.784375,4.00625 13.08125,4.003125 L13.334375,4.003125 L13.334375,3.684375 L13.334375,2.3875 C13.334375,2.125 13.45625,2.003125 13.715625,2.003125 L14.934375,2.003125 C15.2125,2.003125 15.34375,2.153125 15.340625,2.434375 C15.334375,2.95 15.3375,3.465625 15.3375,3.996875 C15.578125,4.00625 15.85,3.94375 15.996875,4.21875 L15.996875,7.78125 C15.8875,7.959375 15.728125,8.0125 15.521875,8.003125 C15.2375,7.990625 14.953125,8 14.659375,8 C14.659375,8.5375 14.65625,9.05 14.659375,9.565625 C14.6625,10.078125 14.628125,10.5875 14.49375,11.08125 C13.784375,13.665625 12.125,15.271875 9.509375,15.88125 C9.26875,15.9375 9.021875,15.9625 8.775,16 L7.9,16 C7.725,15.975 7.55,15.95625 7.378125,15.928125 C5.93125,15.6875 4.703125,15.03125 3.70625,13.95625 C2.71875,12.8875 2.134375,11.628125 2.03125,10.165625 C1.990625,9.584375 2.009375,9 2,8.415625 C1.996875,8.28125 2,8.146875 2,7.996875 L1.834375,7.996875 C1.38125,7.996875 0.928125,7.9875 0.475,8 C0.26875,8.009375 0.109375,7.959375 0,7.78125 L0,2.90625 C0.128125,2.6 0.415625,2.678125 0.6625,2.659375 L0.6625,2.471875 C0.6625,1.796875 0.665625,1.121875 0.659375,0.44375 C0.659375,0.240625 0.71875,0.0875 0.90625,0 L3.78125,0 Z M8.328125,15.321875 C10.034375,15.328125 11.328125,14.046875 11.334375,12.340625 C11.340625,10.64375 10.046875,9.340625 8.346875,9.334375 C6.640625,9.328125 5.35,10.609375 5.334375,12.3125 C5.31875,14.040625 6.66875,15.353125 8.328125,15.321875 Z M3.990625,3.346875 L0.671875,3.346875 C0.66875,3.3875 0.6625,3.41875 0.6625,3.446875 C0.6625,4.696875 0.6625,5.94375 0.659375,7.19375 C0.659375,7.321875 0.7125,7.3375 0.81875,7.334375 C1.834375,7.33125 2.846875,7.33125 3.8625,7.33125 C3.903125,7.33125 3.94375,7.325 3.990625,7.321875 C3.990625,6 3.990625,4.678125 3.990625,3.346875 Z M13.35,4.675 L13.35,7.334375 L15.234375,7.334375 C15.321875,7.334375 15.334375,7.2875 15.334375,7.215625 C15.334375,6.403125 15.33125,5.590625 15.334375,4.78125 C15.334375,4.6625 15.271875,4.6625 15.184375,4.6625 C14.7875,4.66875 14.39375,4.671875 13.996875,4.675 C13.790625,4.675 13.578125,4.675 13.35,4.675 Z M1.346875,0.6625 L1.346875,2.646875 L3.31875,2.646875 C3.325,2.625 3.334375,2.609375 3.334375,2.596875 C3.334375,1.9875 3.334375,1.38125 3.3375,0.771875 C3.3375,0.659375 3.275,0.6625 3.196875,0.6625 L1.996875,0.6625 C1.78125,0.6625 1.571875,0.6625 1.346875,0.6625 Z M14.00625,3.990625 L14.653125,3.990625 L14.653125,2.671875 L14.00625,2.671875 L14.00625,3.990625 Z"/>
      <path d="M8,5.334375 L7.190625,5.334375 C6.821875,5.334375 6.45,5.33125 6.08125,5.334375 C5.91875,5.334375 5.778125,5.3 5.703125,5.140625 C5.628125,4.990625 5.684375,4.8625 5.778125,4.7375 C6.746875,3.446875 7.715625,2.15625 8.684375,0.865625 C8.825,0.68125 8.959375,0.625 9.121875,0.6875 C9.278125,0.746875 9.346875,0.89375 9.34375,1.1125 C9.3375,1.825 9.340625,2.540625 9.340625,3.253125 C9.340625,3.271875 9.346875,3.29375 9.353125,3.334375 L9.51875,3.334375 C10.215625,3.334375 10.915625,3.3375 11.6125,3.334375 C11.771875,3.334375 11.9,3.378125 11.971875,3.528125 C12.04375,3.68125 11.9875,3.8125 11.8875,3.93125 C10.83125,5.2 9.771875,6.465625 8.715625,7.73125 C8.678125,7.775 8.64375,7.81875 8.60625,7.8625 C8.50625,7.978125 8.38125,8.03125 8.23125,7.978125 C8.075,7.921875 8.00625,7.803125 8.00625,7.640625 L8.00625,5.765625 C8,5.63125 8,5.496875 8,5.334375 Z M8.665625,6.6875 C8.678125,6.69375 8.6875,6.696875 8.7,6.703125 C9.44375,5.809375 10.1875,4.91875 10.953125,4 L10.765625,4 L9.078125,4 C8.784375,4 8.6625,3.878125 8.6625,3.584375 L8.6625,2.19375 C8.6625,2.146875 8.65625,2.1 8.653125,2.015625 C7.978125,2.915625 7.334375,3.775 6.66875,4.6625 L8.271875,4.6625 C8.546875,4.6625 8.671875,4.809375 8.66875,5.084375 C8.6625,5.61875 8.665625,6.153125 8.665625,6.6875 Z"/>
    </g>
  </g>
</svg>
