<svg xmlns="http://www.w3.org/2000/svg" width="12" height="16" viewBox="0 0 12 16">
  <g fill="none" fill-rule="evenodd" transform="translate(-2)">
    <rect width="16" height="16"/>
    <g fill="#0756A5" fill-rule="nonzero" transform="translate(2)">
      <path d="M11.6094062,4.66659375 L9.33340625,2.39059375 C9.08315625,2.14034375 8.74428125,2 8.39065625,2 L5.3333125,2 L5.3333125,1.33334375 C5.33334375,0.59715625 4.7361875,0 4,0 L2.66665625,0 C1.93046875,0 1.3333125,0.59715625 1.3333125,1.33334375 L1.3333125,2.11375 C0.55640625,2.3881875 0,3.12890625 0,4 L0,14 C0,15.104375 0.8953125,16 2,16 L10,16 C11.1041875,16 12,15.1041875 12,14 L12,5.60934375 C12,5.25571875 11.8596563,4.91684375 11.6094062,4.66659375 Z M10.2857239,15 L1.71427615,15 C1.31978866,15 1,14.6865089 1,14.3000098 L1,3.79999344 C1,3.41310065 1.31948732,3.10000328 1.71427615,3.10000328 C2.10876364,3.10000328 2.4285523,2.7866106 2.4285523,2.40001313 L2.4285523,1 L3.85713807,1 L3.85713807,2.40001313 C3.85713807,2.7866106 4.17692673,3.10000328 4.57141422,3.10000328 L8.56142313,3.10000328 L10.999933,5.48987264 L11,14.3000098 C11,14.6862136 10.6798096,15 10.2857239,15 Z"/>
      <path d="M5.49334645 9.95951954C6.6850027 10.2053008 7.77772145 9.30505079 7.77772145 8.11133204 7.77772145 7.79405079 7.68915895 7.50561329 7.52465895 7.24523829 7.48959645 7.18958204 7.4613777 7.14517579 7.39847145 7.04661329 7.1383152 6.63895704 7.03140895 6.46133204 6.92134645 6.24117579L6.4854402 5.36870704C6.2398777 4.87717579 5.5385027 4.87708204 5.29278395 5.36851954L4.94278395 6.06851954C4.6681902 6.61770704 4.5333152 6.85698829 4.3421902 7.10351954 4.1432527 7.36133204 4.02815895 7.64948829 4.00472145 7.98176954 3.9381277 8.90861329 4.58303395 9.77120704 5.49334645 9.95951954zM5.33465895 8.07642579C5.3391277 8.01320704 5.35497145 7.97355079 5.3968152 7.91926954 5.5810027 7.68170704 5.71690895 7.46686329 5.8908777 7.14111329 5.9842527 7.30470704 6.09703395 7.48586329 6.2691902 7.75561329L6.27447145 7.76386329C6.3365652 7.86117579 6.3631902 7.90301954 6.39690895 7.95658204 6.43103395 8.01058204 6.44434645 8.05398829 6.44434645 8.11130079 6.44434645 8.46383204 6.12359645 8.72808204 5.7630027 8.65370704 5.5108152 8.60158204 5.3156902 8.34058204 5.33465895 8.07642579zM7.66665625 12L3.66665625 12C3.29846875 12 3 12.2984687 3 12.6666563 3 13.0348438 3.29846875 13.3333125 3.66665625 13.3333125L7.66665625 13.3333125C8.03484375 13.3333125 8.3333125 13.0348438 8.3333125 12.6666563 8.3333125 12.2984687 8.03484375 12 7.66665625 12z"/>
    </g>
  </g>
</svg>
