<svg xmlns="http://www.w3.org/2000/svg" width="12" height="18" viewBox="0 0 12 18">
  <g fill="none" fill-rule="evenodd" transform="translate(-2 1)">
    <rect width="16" height="16"/>
    <path fill="#0756A5" fill-rule="nonzero" stroke="#0756A5" stroke-width=".25" d="M3.1,16 C2.9,15.7 3,15.5 3.1,15.2 C3.3,14.5 3.9,14 4.7,14 L5,14 C5,14 5,14 5,13.9 L5,3.1 C5,2.7 5.1,2.6 5.5,2.6 L6.4,2.6 L6.4,1.9 C6.3,2 6.2,2 6.1,2 L3.4,2 C3.1,2 3,1.9 3,1.6 L3,0.4 C3,0.1 3.1,0 3.4,0 L10,0 C10.3,0 10.4,0.1 10.4,0.4 L10.4,1.6 C10.4,1.9 10.3,2 10,2 L7.2,2 L7,2 L7,2.7 L7.2,2.7 L8,2.7 C8.3,2.7 8.4,2.8 8.4,3.1 L8.4,8.6 L8.4,11.3 L8.4,11.5 L9.3,11.5 C9.6,11.5 9.7,11.6 9.7,11.9 L9.7,12.1 C10.3,12.2 10.9,12 11.3,11.6 C11.6,11.3 11.7,10.9 11.7,10.5 L11.7,4.8 C11.7,4.8 11.7,4.8 11.7,4.7 L11.4,4.7 C11.2,4.7 11,4.6 11,4.3 L11,2.4 C11,2.1 11.1,2 11.4,2 L12.7,2 C12.9,2 13,2.1 13,2.4 L13,4.3 C13,4.5 12.9,4.7 12.6,4.7 L12.3,4.7 L12.3,4.9 L12.3,10.3 C12.3,11.5 11.5,12.4 10.4,12.6 C10.2,12.6 9.9,12.6 9.7,12.7 L9.7,13 C9.7,13.2 9.6,13.4 9.3,13.4 L8.4,13.4 L8.4,14.1 L8.9,14.1 C9.7,14.2 10.3,14.9 10.4,15.7 C10.4,15.8 10.3,15.9 10.3,16 L3.1,16 Z M5.7,4.7 L5.7,14 L7.7,14 L7.7,4.7 C7,4.7 6.3,4.7 5.7,4.7 Z M3.7,1.3 L9.7,1.3 L9.7,0.7 L3.7,0.7 C3.7,0.9 3.7,1.1 3.7,1.3 Z M9.6,15.4 C9.5,15 9.1,14.7 8.7,14.7 L6.6,14.7 L4.7,14.7 C4.3,14.7 3.9,15 3.8,15.4 L9.6,15.4 Z M7.7,3.4 L5.7,3.4 L5.7,4 L7.7,4 L7.7,3.4 Z M11.7,4 L12.4,4 L12.4,2.7 L11.7,2.7 L11.7,4 Z M9,12.7 L9,12 L8.4,12 L8.4,12.7 L9,12.7 Z"/>
  </g>
</svg>
