<svg xmlns="http://www.w3.org/2000/svg" width="16" height="16" viewBox="0 0 16 16">
  <g fill="none" fill-rule="evenodd">
    <rect width="16" height="16"/>
    <g fill="#0756A5" fill-rule="nonzero">
      <path d="M11,16 L5,16 C4.85625,15.975 4.715625,15.953125 4.571875,15.921875 C3.484375,15.690625 2.6375,15.075 1.953125,14.228125 C0.84375,12.8625 0.321875,11.25625 0.09375,9.5375 C0.053125,9.234375 0.03125,8.93125 0,8.625 L0,7.40625 C0.009375,7.3625 0.01875,7.315625 0.025,7.271875 C0.090625,6.740625 0.128125,6.203125 0.225,5.68125 C0.484375,4.3 0.984375,3.0125 1.85625,1.89375 C2.4625,1.115625 3.2,0.503125 4.15625,0.196875 C4.428125,0.10625 4.71875,0.0625 5,0 L11,0 C11.228125,0.046875 11.459375,0.078125 11.684375,0.140625 C12.715625,0.43125 13.5125,1.06875 14.153125,1.903125 C15.1875,3.246875 15.684375,4.803125 15.903125,6.4625 C15.94375,6.765625 15.965625,7.06875 16,7.375 L16,8.59375 C15.990625,8.6375 15.98125,8.684375 15.975,8.728125 C15.909375,9.259375 15.871875,9.796875 15.775,10.31875 C15.5125,11.703125 15.0125,12.996875 14.134375,14.11875 C13.528125,14.890625 12.79375,15.5 11.846875,15.80625 C11.571875,15.89375 11.28125,15.9375 11,16 Z M6.665625,8.196875 C6.675,9.25625 6.871875,10.478125 7.340625,11.646875 C7.7,12.534375 8.18125,13.34375 8.921875,13.971875 C9.971875,14.8625 11.21875,14.89375 12.30625,14.05 C12.884375,13.603125 13.309375,13.025 13.646875,12.38125 C14.2375,11.259375 14.5375,10.05625 14.63125,8.796875 C14.74375,7.26875 14.559375,5.784375 13.990625,4.35625 C13.640625,3.475 13.1625,2.675 12.434375,2.046875 C11.334375,1.1 10.00625,1.096875 8.903125,2.034375 C8.3125,2.5375 7.890625,3.1625 7.55625,3.853125 C6.93125,5.16875 6.675,6.559375 6.665625,8.196875 Z M1.36875,8.275 C1.346875,8.28125 1.321875,8.290625 1.3,8.296875 C1.378125,8.8875 1.45625,9.478125 1.540625,10.06875 C1.546875,10.1125 1.60625,10.1625 1.65,10.18125 C1.984375,10.321875 2.321875,10.4625 2.659375,10.59375 C2.7125,10.615625 2.78125,10.615625 2.8375,10.6 C3.43125,10.446875 4.021875,10.2875 4.615625,10.13125 C4.9,10.05625 5.184375,9.98125 5.465625,9.90625 C5.421875,9.478125 5.378125,9.071875 5.3375,8.65625 C5.30625,8.6625 5.28125,8.66875 5.25625,8.675 C4.478125,8.878125 3.696875,9.075 2.921875,9.2875 C2.590625,9.378125 2.334375,9.296875 2.109375,9.05 C1.86875,8.7875 1.615625,8.534375 1.36875,8.275 Z M5.75,11.21875 C5.725,11.225 5.7,11.228125 5.675,11.234375 C4.80625,11.465625 3.9375,11.6875 3.071875,11.928125 C2.7875,12.00625 2.521875,12.015625 2.259375,11.875 C2.2125,11.85 2.159375,11.8375 2.078125,11.809375 C2.290625,12.3125 2.54375,12.75625 2.84375,13.175 C2.921875,13.284375 2.996875,13.3 3.115625,13.271875 C3.99375,13.0625 4.875,12.859375 5.75625,12.65625 C5.915625,12.61875 6.075,12.578125 6.23125,12.540625 C6.065625,12.09375 5.9125,11.665625 5.75,11.21875 Z M5.45,6.21875 C5.40625,6.225 5.36875,6.228125 5.334375,6.234375 C4.734375,6.365625 4.134375,6.496875 3.5375,6.634375 C3.246875,6.7 3.00625,6.63125 2.803125,6.4125 C2.50625,6.09375 2.2,5.778125 1.896875,5.4625 C1.8375,5.4 1.778125,5.3375 1.684375,5.240625 C1.603125,5.640625 1.53125,6 1.465625,6.359375 C1.459375,6.4 1.484375,6.4625 1.515625,6.49375 C1.940625,6.94375 2.36875,7.39375 2.8,7.834375 C2.8375,7.871875 2.921875,7.9 2.971875,7.8875 C3.728125,7.69375 4.48125,7.49375 5.234375,7.296875 C5.31875,7.275 5.35,7.2375 5.35625,7.15 C5.3875,6.85 5.41875,6.546875 5.45,6.21875 Z M6.171875,3.590625 C6.13125,3.59375 6.090625,3.59375 6.05,3.6 C5.4625,3.715625 4.875,3.821875 4.29375,3.95625 C3.94375,4.0375 3.665625,3.971875 3.421875,3.7 C3.20625,3.45625 2.965625,3.234375 2.7125,2.978125 C2.546875,3.275 2.39375,3.54375 2.25,3.81875 C2.2375,3.84375 2.2625,3.90625 2.2875,3.934375 C2.684375,4.353125 3.084375,4.771875 3.4875,5.184375 C3.525,5.221875 3.6,5.253125 3.646875,5.240625 C4.328125,5.09375 5.00625,4.940625 5.684375,4.784375 C5.721875,4.775 5.771875,4.74375 5.784375,4.709375 C5.915625,4.34375 6.040625,3.971875 6.171875,3.590625 Z M7.640625,1.353125 C7.61875,1.346875 7.60625,1.3375 7.590625,1.3375 C6.76875,1.340625 5.946875,1.321875 5.125,1.35 C4.553125,1.371875 4.0625,1.6375 3.609375,2.009375 C3.7875,2.184375 3.95625,2.34375 4.11875,2.5125 C4.1875,2.5875 4.25625,2.603125 4.353125,2.584375 C5.225,2.40625 6.09375,2.234375 6.965625,2.05625 C7.021875,2.04375 7.084375,2.0125 7.121875,1.96875 C7.296875,1.771875 7.4625,1.565625 7.640625,1.353125 Z M4.228125,14.378125 C4.521875,14.559375 4.921875,14.659375 5.35625,14.6625 C6.078125,14.665625 6.803125,14.6625 7.525,14.6625 C7.5625,14.6625 7.6,14.65625 7.634375,14.65 C7.40625,14.3625 7.1875,14.08125 6.9625,13.803125 C6.940625,13.775 6.875,13.7625 6.834375,13.771875 C6.590625,13.821875 6.346875,13.88125 6.10625,13.9375 C5.484375,14.084375 4.86875,14.228125 4.228125,14.378125 Z"/>
      <path d="M7.996875,7.98718836 C8.009375,6.84031336 8.15,5.69968836 8.56875,4.60593836 C8.771875,4.07156336 9.040625,3.57468836 9.4625,3.17781336 C10.18125,2.49968836 11.159375,2.49968836 11.875,3.18406336 C12.4,3.68406336 12.690625,4.32156336 12.9,4.99656336 C13.3,6.28093836 13.396875,7.59656336 13.29375,8.93093836 C13.221875,9.84968836 13.046875,10.7434384 12.684375,11.5965634 C12.46875,12.1028134 12.190625,12.5715634 11.75625,12.9278134 C11.05625,13.4996884 10.15,13.4684384 9.484375,12.8528134 C9,12.4059384 8.715625,11.8340634 8.503125,11.2278134 C8.134375,10.1840634 8.00625,9.10281336 7.996875,7.98718836 Z M12.003125,8.06218836 C11.996875,7.14031336 11.90625,6.29968836 11.653125,5.48406336 C11.521875,5.05593836 11.35625,4.63718836 11.075,4.28093836 C10.78125,3.91218836 10.5375,3.90281336 10.265625,4.28406336 C10.0875,4.53406336 9.9375,4.81531336 9.81875,5.10281336 C9.53125,5.79656336 9.409375,6.53093836 9.359375,7.27781336 C9.284375,8.42468836 9.359375,9.55593836 9.721875,10.6559384 C9.853125,11.0528134 10.015625,11.4371884 10.2875,11.7590634 C10.553125,12.0778134 10.771875,12.0903134 11.025,11.7653134 C11.2,11.5434384 11.346875,11.2903134 11.459375,11.0309384 C11.875,10.0653134 11.990625,9.03718836 12.003125,8.06218836 Z"/>
    </g>
  </g>
</svg>
