<svg height="16" viewBox="0 0 16 16" width="16" xmlns="http://www.w3.org/2000/svg"><g fill="none" fill-rule="evenodd"><path d="m0 0h16v16h-16z"/><g fill="#0756a5" fill-rule="nonzero"><path d="m9.46341463.03118908c.23089431.07485381.4195122.19337232.50731708.42105264.07154469.18089668.04552849.35555555-.03902439.52709551-.36747968.77348928-.73170732 1.55009747-1.10243903 2.32358675-.06178862.12787524-.06178862.23079922 0 .36179337 1.69430891 3.5711501 3.38536581 7.14230015 5.07967481 10.71345025.1300813.2775829.1398374.5333334-.0715447.7703704-.1463415.1653022-.3479675.2183236-.5691057.2183236-2.4 0-4.80325205 0-7.20325205 0-1.10569106 0-2.21138211 0-3.31707317 0-.4 0-.68617886-.2276803-.70894309-.5832359-.0097561-.1309941.03577236-.2775828.09430894-.4023392 1.0796748-2.2892787 2.16260163-4.57543855 3.24552846-6.86159839.61463414-1.29434698 1.22601626-2.58869396 1.84390244-3.88304094.05203252-.10916179.04878049-.19649122-.00325203-.30253411-.35772358-.7454191-.69593496-1.49707602-1.0699187-2.23625731-.22764228-.4460039-.14308943-.88265107.42276422-1.06666667h.22764228c.28617886.08109162.45528455.26822613.56910569.52709552.20162602.45847953.42601626.90760234.65040651 1.37855751.22439024-.47407408.44878048-.92319689.6504065-1.38167642.11382114-.2619883.2796748-.4491228.56910569-.52709551.07154472.0031189.1495935.0031189.22439024.0031189zm2.84227647 14.06003902c-1.4341464-3.031579-2.85853663-6.03508775-4.28943094-9.06042888-1.43414634 3.03157895-2.85853658 6.03820658-4.28943089 9.06042888.35121951 0 .67317073-.0093568.99186992.0031189.15284553.0062378.22764227-.0436647.28943089-.1777778.7902439-1.7185185 1.58699187-3.4339181 2.38048781-5.15243665.1203252-.2619883.32195122-.42105263.62439024-.42105263.30894309-.00311891.51382114.15282651.63739837.42417154.32520326.71111111.65691057 1.42222224.98536586 2.13645224.47154474 1.019883.94308944 2.0397661 1.42113824 3.0565302.0260162.0530215.0975609.1247564.1463414.1278753.3544716.0093567.7121952.0031189 1.1024391.0031189zm-2.65365858-.0062378c-.5495935-1.1851852-1.08617886-2.3454191-1.63577236-3.5337232-.55284553 1.1945419-1.08943089 2.3578947-1.63577236 3.5337232z"/><path d="m16 7.20467836c-.1463415.38050683-.4357724.5208577-.8487805.50214425-.3707317-.01871345-.7447154-.00311891-1.1447154-.00311891v.17465887c0 .7797271.003252 1.55945419 0 2.33918133-.0032521.4896686-.4552846.8046783-.9073171.6362573-.2601626-.0966862-.4195122-.3212476-.4227642-.6081872-.0032521-.78908379 0-1.58128651-.0032521-2.37037034 0-.04990253 0-.10292397 0-.17153996-.1365853 0-.2601626 0-.3804878 0-.3089431 0-.6178862 0-.9268292 0-.2796748 0-.494309-.11539961-.6178862-.35867446-.1235773-.24015595-.0878049-.47407407.0813008-.68615984.3544715-.45224172.7089431-.90760234 1.0601626-1.35984406.0325203-.04054581.0617886-.08421053.1105691-.15282651-.2178862 0-.4065041-.00311891-.598374 0-.2926829.00623782-.5203252-.10292398-.6536585-.35555556-.1333334-.25263157-.0813008-.48966861.0943089-.71423001.6406504-.817154 1.2813008-1.63742691 1.9219512-2.45769981.3089431-.39610136.8325204-.39922027 1.1414635-.00623782.6439024.82339182 1.2878048 1.64678363 1.9284552 2.47017544.0650407.08421053.1105691.18713451.1658537.28070176v.28070175c-.1430894.37738792-.4292683.53333333-.8422764.50214425-.1528456-.01247563-.3056911-.00311891-.4878049-.00311891.2276423.29005848.4357724.54892788.6341463.81091618.2373984.31812866.4650407.64249513.695935.9668616zm-2.6634146-1.63118908c-.2243903.29005848-.4357724.56140351-.6536586.84210526h1.3105691c-.2211382-.28693957-.4325203-.55516569-.6569105-.84210526zm.6601626-1.7122807c-.2243903-.28693957-.4357724-.5582846-.6569106-.84210527-.2243902.28693957-.4357724.5582846-.6569106.84210527zm-13.96422767.50526315c.09105691-.14035087.16910569-.28693957.27317073-.41793372.60162601-.77660819 1.20650406-1.54697856 1.81138211-2.32046783.31544716-.40545809.83577236-.40545809 1.15121951-.00311891.64390244.82339181 1.28455285 1.64678362 1.92845529 2.47017544.17235772.21832358.21463414.45536062.08455284.70175438s-.35121951.35555556-.63739837.35243665c-.19512195-.00311891-.38699187 0-.61138211 0 .04552845.06237817.07479674.10916179.1105691.15282651.34796748.4460039.69268293.8920078 1.04390244 1.33489279.17560976.22144249.22764228.45847953.09756098.71423002-.13008131.25575048-.36097561.35867446-.65040651.35555555-.41626016-.00311891-.83252032 0-1.27479675 0v.19025341c0 .78908382.00325204 1.58128655-.00325203 2.37037038 0 .2994152-.19512195.5333333-.48455284.611306-.2796748.0748538-.59186992-.0280701-.73170732-.2744639-.06829268-.1216374-.10731707-.2744639-.10731707-.4148148-.0097561-.75789475-.00325204-1.5189084-.00325204-2.27680313 0-.06237817 0-.12163743 0-.20584796-.20487805 0-.4 0-.59186992 0-.18536585 0-.3707317-.00935672-.55284552.00311891-.41300813.02807018-.70243903-.11851852-.84878049-.49902534 0-.09356725 0-.1871345 0-.28070176.09756097-.14658869.18211382-.30253411.28943089-.44288499.30894309-.40545808.62764228-.80467836.9398374-1.20701754.02601626-.03430799.04878049-.0748538.08780488-.12787524-.17235773 0-.32520325-.00935673-.47479675.00311891-.41300813.03118908-.69918699-.12163743-.84227642-.50214425-.00325203-.09980507-.00325203-.19337232-.00325203-.28693958zm2.00325203 2.04912281h1.31707317c-.22439025-.29005848-.43577236-.56140351-.65691057-.84210526-.22439024.28693957-.43577236.55516569-.6601626.84210526zm1.31382114-2.55750487c-.22764228-.29005848-.43902439-.5582846-.65691057-.83898636-.22439025.28693957-.43577236.5551657-.65691057.83898636z"/></g></g></svg>