<svg xmlns="http://www.w3.org/2000/svg" width="17" height="15" viewBox="0 0 17 15">
  <g fill="none" fill-rule="evenodd" transform="translate(1)">
    <rect width="16" height="16"/>
    <g fill="#0756A5" fill-rule="nonzero" stroke="#0756A5" stroke-width=".25" transform="translate(0 1)">
      <path d="M1.97647059 5.78666667C2.25882353 5.6 2.54117647 5.32 2.82352941 5.13333333 2.72941176 4.94666667 2.63529412 4.85333333 2.54117647 4.66666667 2.44705882 4.48 2.54117647 4.38666667 2.63529412 4.29333333 3.2 4.01333333 3.76470588 3.82666667 4.42352941 3.82666667 4.61176471 3.82666667 4.70588235 3.92 4.70588235 4.10666667L4.70588235 4.57333333C5.08235294 4.57333333 5.36470588 4.66666667 5.64705882 4.66666667L5.74117647 4.57333333C5.83529412 4.48 5.83529412 4.29333333 5.83529412 4.2 5.92941176 4.01333333 6.02352941 3.92 6.21176471 4.01333333 6.77647059 4.2 7.34117647 4.48 7.81176471 4.94666667 7.90588235 5.04 7.90588235 5.22666667 7.81176471 5.32 7.81176471 5.50666667 7.71764706 5.6 7.62352941 5.69333333L7.62352941 5.88C7.81176471 6.16 8 6.34666667 8.18823529 6.62666667 8.37647059 6.53333333 8.47058824 6.44 8.65882353 6.34666667 8.84705882 6.25333333 9.03529412 6.34666667 9.12941176 6.53333333 9.22352941 6.72 9.22352941 6.90666667 9.31764706 7.09333333 9.31764706 7.18666667 9.41176471 7.18666667 9.50588235 7.18666667 9.97647059 7.18666667 10.4470588 7.37333333 10.7294118 7.74666667 11.1058824 8.12 11.4823529 8.49333333 11.8588235 8.86666667 11.9529412 8.96 12.0470588 9.05333333 12.2352941 9.05333333 12.8 9.14666667 13.3647059 9.24 13.9294118 9.33333333 14.0235294 9.33333333 14.1176471 9.42666667 14.3058824 9.42666667 14.6823529 9.52 14.8705882 9.8 14.8705882 10.1733333 14.8705882 10.2666667 14.8705882 10.36 14.9647059 10.4533333 15.1529412 10.5466667 15.1529412 10.64 15.1529412 10.8266667L15.1529412 11.1066667C15.1529412 11.3866667 15.0588235 11.48 14.7764706 11.48L13.2705882 11.48 13.0823529 11.48C12.8941176 12.1333333 12.4235294 12.5066667 11.8588235 12.5066667 11.2941176 12.5066667 10.8235294 12.1333333 10.6352941 11.48L9.6 11.48 8.94117647 11.48C8.75294118 11.48 8.56470588 11.48 8.47058824 11.6666667 8.37647059 11.8533333 8.18823529 11.76 8.09411765 11.6666667 8 11.5733333 7.81176471 11.48 7.71764706 11.2933333 7.43529412 11.48 7.15294118 11.76 6.87058824 11.9466667 6.96470588 12.1333333 7.05882353 12.2266667 7.05882353 12.4133333 7.15294118 12.6 7.05882353 12.7866667 6.87058824 12.88 6.30588235 13.16 5.83529412 13.2533333 5.17647059 13.3466667 4.98823529 13.3466667 4.8 13.2533333 4.8 13.0666667L4.8 12.6C4.42352941 12.6 4.14117647 12.5066667 3.76470588 12.5066667 3.67058824 12.6933333 3.67058824 12.7866667 3.57647059 12.9733333 3.48235294 13.0666667 3.38823529 13.0666667 3.10588235 12.9733333 2.54117647 12.7866667 2.07058824 12.5066667 1.6 12.1333333 1.41176471 12.04 1.41176471 11.8533333 1.6 11.6666667 1.69411765 11.5733333 1.78823529 11.3866667 1.88235294 11.2933333 1.69411765 11.0133333 1.41176471 10.7333333 1.22352941 10.4533333 1.03529412 10.5466667.941176471 10.64.752941176 10.64.564705882 10.7333333.470588235 10.64.376470588 10.5466667.188235294 10.08.0941176471 9.52 0 8.96 0 8.77333333.0941176471 8.68.282352941 8.58666667L.658823529 8.58666667C.752941176 8.58666667.752941176 8.49333333.752941176 8.49333333.752941176 8.21333333.847058824 7.93333333.847058824 7.74666667.941176471 7.56.941176471 7.46666667.752941176 7.46666667.658823529 7.46666667.564705882 7.37333333.470588235 7.37333333.282352941 7.28.188235294 7.18666667.282352941 7 .470588235 6.44.752941176 5.88 1.12941176 5.50666667 1.22352941 5.41333333 1.41176471 5.32 1.50588235 5.50666667 1.6 5.50666667 1.69411765 5.50666667 1.78823529 5.6 1.78823529 5.69333333 1.88235294 5.69333333 1.97647059 5.78666667zM6.4 12.5066667C6.30588235 12.32 6.21176471 12.2266667 6.21176471 12.1333333 6.11764706 11.9466667 6.21176471 11.8533333 6.30588235 11.76 6.68235294 11.48 7.05882353 11.2 7.43529412 10.92 7.62352941 10.8266667 7.71764706 10.8266667 7.81176471 10.92 7.90588235 11.0133333 8 11.1066667 8.18823529 11.2 8.37647059 10.92 8.56470588 10.64 8.75294118 10.2666667 8.56470588 10.1733333 8.47058824 10.1733333 8.28235294 10.08 8.09411765 9.98666667 8.09411765 9.89333333 8.09411765 9.8 8.18823529 9.33333333 8.18823529 8.86666667 8.28235294 8.4 8.28235294 8.21333333 8.37647059 8.12 8.56470588 8.12L9.03529412 8.12C8.84705882 7.65333333 8.75294118 7.28 8.65882353 7 8.56470588 7.09333333 8.37647059 7.09333333 8.28235294 7.18666667 8.18823529 7.28 8 7.28 7.90588235 7.09333333 7.62352941 6.72 7.34117647 6.34666667 6.96470588 5.97333333 6.87058824 5.78666667 6.87058824 5.69333333 6.96470588 5.6 7.05882353 5.50666667 7.15294118 5.41333333 7.24705882 5.22666667 7.05882353 5.04 6.68235294 4.85333333 6.4 4.66666667 6.4 4.85333333 6.30588235 4.94666667 6.30588235 5.13333333 6.21176471 5.22666667 6.11764706 5.32 5.92941176 5.32 5.45882353 5.22666667 4.98823529 5.22666667 4.42352941 5.13333333 4.23529412 5.13333333 4.23529412 5.04 4.23529412 4.85333333L4.23529412 4.38666667C3.85882353 4.48 3.48235294 4.57333333 3.2 4.66666667 3.29411765 4.76 3.29411765 4.85333333 3.29411765 4.85333333 3.29411765 4.94666667 3.38823529 4.94666667 3.38823529 5.04 3.48235294 5.22666667 3.48235294 5.32 3.29411765 5.41333333 2.91764706 5.78666667 2.54117647 6.06666667 2.16470588 6.34666667 1.97647059 6.44 1.88235294 6.44 1.69411765 6.34666667 1.6 6.25333333 1.50588235 6.16 1.41176471 5.97333333 1.22352941 6.25333333 1.03529412 6.53333333.847058824 6.90666667 1.03529412 7 1.12941176 7 1.22352941 7 1.41176471 7.09333333 1.50588235 7.18666667 1.41176471 7.37333333 1.41176471 7.84 1.41176471 8.4 1.31764706 8.86666667 1.31764706 9.05333333 1.22352941 9.14666667 1.03529412 9.14666667L.564705882 9.14666667C.658823529 9.52.752941176 9.8.847058824 10.1733333 1.03529412 10.08 1.12941176 9.98666667 1.31764706 9.98666667 1.50588235 9.89333333 1.6 9.98666667 1.69411765 10.08 1.88235294 10.36 2.25882353 10.8266667 2.54117647 11.2 2.63529412 11.3866667 2.63529412 11.48 2.54117647 11.6666667 2.44705882 11.76 2.35294118 11.8533333 2.25882353 12.04 2.54117647 12.2266667 2.82352941 12.4133333 3.2 12.6 3.29411765 12.4133333 3.29411765 12.32 3.29411765 12.2266667 3.38823529 11.9466667 3.48235294 11.9466667 3.67058824 11.9466667 4.14117647 12.04 4.61176471 12.04 5.08235294 12.1333333 5.27058824 12.1333333 5.36470588 12.2266667 5.36470588 12.4133333L5.36470588 12.88C5.74117647 12.6 6.02352941 12.5066667 6.4 12.5066667zM14.4941176 10.92L14.4941176 10.92C14.4941176 10.8266667 14.4941176 10.8266667 14.4 10.7333333 14.2117647 10.64 14.1176471 10.4533333 14.2117647 10.2666667 14.2117647 9.98666667 14.1176471 9.89333333 13.8352941 9.8 13.5529412 9.70666667 13.2705882 9.70666667 12.9882353 9.61333333 12.5176471 9.52 12.0470588 9.42666667 11.5764706 9.42666667L8.75294118 9.42666667 8.56470588 9.42666667 8.56470588 9.42666667 8.65882353 9.52C8.75294118 9.52 8.84705882 9.61333333 8.94117647 9.61333333 9.22352941 9.70666667 9.22352941 9.8 9.12941176 10.08 9.03529412 10.36 8.94117647 10.5466667 8.84705882 10.8266667L10.2588235 10.8266667C10.4470588 10.8266667 10.5411765 10.8266667 10.5411765 10.64 10.5411765 10.5466667 10.6352941 10.4533333 10.6352941 10.4533333 11.2 9.8 12.3294118 9.89333333 12.7058824 10.7333333 12.7058824 10.8266667 12.8 10.8266667 12.8941176 10.8266667 13.5529412 10.92 14.0235294 10.92 14.4941176 10.92zM11.1058824 8.96L10.0705882 7.93333333C9.88235294 7.74666667 9.69411765 7.74666667 9.50588235 7.74666667L9.50588235 8.02666667 9.50588235 8.30666667C9.50588235 8.49333333 9.41176471 8.58666667 9.22352941 8.58666667L8.75294118 8.58666667 8.75294118 8.96C9.50588235 8.96 10.2588235 8.96 11.1058824 8.96zM11.1058824 11.2933333C11.1058824 11.6666667 11.3882353 11.9466667 11.7647059 11.9466667 12.1411765 11.9466667 12.4235294 11.6666667 12.5176471 11.2933333 12.5176471 10.92 12.2352941 10.64 11.8588235 10.64 11.3882353 10.64 11.1058824 10.92 11.1058824 11.2933333zM13.3647059 1.77333333C13.4588235 1.96 13.4588235 2.14666667 13.5529412 2.24L13.6470588 2.33333333 13.8352941 2.33333333C14.0235294 2.33333333 14.1176471 2.33333333 14.1176471 2.52L14.1176471 3.64C14.1176471 3.73333333 14.0235294 3.73333333 13.9294118 3.73333333 13.8352941 3.73333333 13.7411765 3.73333333 13.6470588 3.64 13.5529412 3.82666667 13.4588235 4.01333333 13.4588235 4.10666667 13.4588235 4.10666667 13.4588235 4.2 13.5529412 4.2 13.8352941 4.38666667 13.8352941 4.48 13.6470588 4.76 13.4588235 4.94666667 13.2705882 5.22666667 12.9882353 5.41333333 12.8 5.6 12.7058824 5.6 12.5176471 5.41333333 12.3294118 5.22666667 12.3294118 5.22666667 12.1411765 5.32 12.0470588 5.32 11.9529412 5.41333333 11.7647059 5.50666667 11.7647059 5.6 11.7647059 5.69333333 11.8588235 5.78666667 11.8588235 5.97333333 11.8588235 6.06666667 11.6705882 6.06666667L10.5411765 6.06666667C10.3529412 6.06666667 10.2588235 5.97333333 10.3529412 5.78666667 10.3529412 5.69333333 10.3529412 5.6 10.4470588 5.50666667 10.2588235 5.41333333 10.0705882 5.32 9.88235294 5.22666667 9.78823529 5.32 9.78823529 5.41333333 9.69411765 5.41333333 9.69411765 5.6 9.50588235 5.6 9.41176471 5.50666667 9.12941176 5.32 8.94117647 5.04 8.65882353 4.76 8.56470588 4.66666667 8.56470588 4.48 8.75294118 4.38666667 8.84705882 4.38666667 8.84705882 4.29333333 8.94117647 4.29333333 8.84705882 4.10666667 8.75294118 3.92 8.65882353 3.73333333L8.37647059 3.73333333C8.18823529 3.73333333 8.09411765 3.73333333 8.09411765 3.54666667L8.09411765 2.52C8.09411765 2.33333333 8.18823529 2.24 8.37647059 2.33333333 8.65882353 2.33333333 8.65882353 2.33333333 8.75294118 2.14666667 8.75294118 2.05333333 8.84705882 1.96 8.84705882 1.86666667 8.84705882 1.68 8.75294118 1.68 8.65882353 1.58666667 8.56470588 1.49333333 8.47058824 1.4 8.56470588 1.30666667 8.84705882 1.02666667 9.12941176.746666667 9.41176471.56 9.50588235.466666667 9.69411765.466666667 9.78823529.653333333 9.78823529.746666667 9.88235294.746666667 9.97647059.84 10.1647059.746666667 10.3529412.653333333 10.5411765.56 10.5411765.466666667 10.5411765.373333333 10.4470588.28 10.4470588.0933333333 10.4470588 0 10.6352941 0L11.7647059 0C11.9529412 0 11.9529412.0933333333 11.9529412.28 11.9529412.56 11.9529412.56 12.1411765.653333333L12.2352941.653333333C12.5176471.746666667 12.5176471.746666667 12.6117647.56 12.7058824.373333333 12.8.373333333 12.9882353.466666667 13.1764706.746666667 13.3647059.933333333 13.6470588 1.21333333 13.7411765 1.30666667 13.7411765 1.49333333 13.5529412 1.58666667 13.5529412 1.68 13.4588235 1.68 13.3647059 1.77333333zM10.8235294.373333333L10.8235294.56C10.9176471.84 10.8235294.84 10.6352941.933333333 10.4470588 1.02666667 10.2588235 1.12 10.0705882 1.12 9.6 1.30666667 9.69411765 1.21333333 9.50588235.933333333L9.50588235.933333333C9.31764706 1.12 9.22352941 1.21333333 9.03529412 1.4 9.12941176 1.4 9.12941176 1.49333333 9.12941176 1.49333333 9.41176471 1.58666667 9.41176471 1.68 9.31764706 1.86666667 9.22352941 2.14666667 9.12941176 2.33333333 9.03529412 2.52 8.94117647 2.8 8.94117647 2.8 8.65882353 2.8L8.56470588 2.8 8.56470588 3.36 8.75294118 3.36C9.03529412 3.26666667 9.03529412 3.36 9.12941176 3.54666667 9.22352941 3.73333333 9.31764706 3.92 9.31764706 4.01333333 9.41176471 4.38666667 9.41176471 4.38666667 9.12941176 4.66666667L9.12941176 4.66666667C9.22352941 4.76 9.41176471 4.94666667 9.50588235 5.04 9.50588235 4.94666667 9.6 4.94666667 9.6 4.94666667 9.78823529 4.76 9.78823529 4.66666667 10.0705882 4.85333333 10.2588235 4.94666667 10.3529412 4.94666667 10.5411765 5.04 10.9176471 5.22666667 10.9176471 5.22666667 10.9176471 5.6L11.4823529 5.6 11.4823529 5.41333333C11.3882353 5.13333333 11.4823529 5.13333333 11.6705882 5.04 11.8588235 4.94666667 12.0470588 4.85333333 12.2352941 4.85333333 12.5176471 4.66666667 12.5176471 4.66666667 12.8 5.04L12.8 5.04C12.8941176 4.94666667 13.0823529 4.76 13.2705882 4.66666667 13.1764706 4.57333333 13.1764706 4.57333333 13.0823529 4.57333333 12.8941176 4.38666667 12.8941176 4.38666667 12.9882353 4.2 13.0823529 3.92 13.0823529 3.73333333 13.1764706 3.54666667 13.3647059 3.17333333 13.3647059 3.17333333 13.7411765 3.26666667L13.7411765 3.26666667 13.7411765 2.70666667 13.5529412 2.70666667C13.2705882 2.8 13.2705882 2.70666667 13.1764706 2.52 13.0823529 2.33333333 12.9882353 2.14666667 12.8941176 1.96 12.7058824 1.58666667 12.7058824 1.58666667 13.0823529 1.4L13.0823529 1.4C12.9882353 1.30666667 12.8 1.12 12.7058824 1.02666667 12.6117647 1.12 12.6117647 1.12 12.6117647 1.21333333 12.4235294 1.4 12.4235294 1.4 12.2352941 1.30666667 12.0470588 1.21333333 11.8588235 1.12 11.6705882 1.02666667 11.2941176.933333333 11.2941176.933333333 11.3882353.56L11.3882353.466666667 11.1058824.466666667C11.0117647.373333333 10.9176471.373333333 10.8235294.373333333z"/>
      <path d="M4.8 6.34666667C6.02352941 6.34666667 6.96470588 7.28 6.96470588 8.49333333 6.96470588 9.70666667 6.02352941 10.64 4.8 10.64 3.57647059 10.64 2.63529412 9.70666667 2.63529412 8.49333333 2.54117647 7.37333333 3.57647059 6.34666667 4.8 6.34666667zM4.8 6.90666667C3.85882353 6.90666667 3.2 7.65333333 3.10588235 8.49333333 3.10588235 9.33333333 3.85882353 10.08 4.70588235 10.08 5.64705882 10.08 6.30588235 9.33333333 6.30588235 8.49333333 6.4 7.65333333 5.64705882 6.90666667 4.8 6.90666667zM11.3882353 11.2933333C11.3882353 11.0133333 11.5764706 10.92 11.8588235 10.92 12.0470588 10.92 12.2352941 11.1066667 12.2352941 11.2933333 12.2352941 11.48 12.0470588 11.76 11.8588235 11.76 11.5764706 11.76 11.3882353 11.5733333 11.3882353 11.2933333zM11.7647059 11.1066667C11.6705882 11.2 11.6705882 11.2933333 11.6705882 11.2933333 11.6705882 11.3866667 11.7647059 11.3866667 11.7647059 11.3866667 11.8588235 11.3866667 11.8588235 11.2933333 11.9529412 11.2933333L11.7647059 11.1066667zM11.2 1.4C12.1411765 1.4 12.8 2.14666667 12.8 3.08 12.8 4.01333333 12.0470588 4.66666667 11.1058824 4.66666667 10.1647059 4.66666667 9.50588235 3.92 9.50588235 2.98666667 9.50588235 2.05333333 10.2588235 1.4 11.2 1.4zM9.88235294 2.98666667C9.88235294 3.64 10.4470588 4.2 11.1058824 4.2 11.7647059 4.2 12.3294118 3.64 12.3294118 2.98666667 12.3294118 2.33333333 11.7647059 1.77333333 11.1058824 1.77333333 10.4470588 1.77333333 9.88235294 2.33333333 9.88235294 2.98666667z"/>
    </g>
  </g>
</svg>
